<?xml version="1.0" encoding="UTF-8" standalone="no"?>
<!DOCTYPE svg PUBLIC "-//W3C//DTD SVG 1.1//EN"
 "http://www.w3.org/Graphics/SVG/1.1/DTD/svg11.dtd">
<!-- Generated by graphviz version 2.38.0 (20140413.2041)
 -->
<!-- Title: G Pages: 1 -->
<svg width="1243pt" height="1810pt"
 viewBox="0.00 0.00 1243.02 1810.00" xmlns="http://www.w3.org/2000/svg" xmlns:xlink="http://www.w3.org/1999/xlink">
<g id="graph0" class="graph" transform="scale(1 1) rotate(0) translate(4 1806)">
<title>G</title>
<polygon fill="white" stroke="none" points="-4,4 -4,-1806 1239.02,-1806 1239.02,4 -4,4"/>
<g id="clust1" class="cluster"><title>cluster_Global</title>
<path fill="none" stroke="gray" d="M333.616,-152C333.616,-152 1215.02,-152 1215.02,-152 1221.02,-152 1227.02,-158 1227.02,-164 1227.02,-164 1227.02,-1782 1227.02,-1782 1227.02,-1788 1221.02,-1794 1215.02,-1794 1215.02,-1794 333.616,-1794 333.616,-1794 327.616,-1794 321.616,-1788 321.616,-1782 321.616,-1782 321.616,-164 321.616,-164 321.616,-158 327.616,-152 333.616,-152"/>
<text text-anchor="middle" x="774.32" y="-1781.2" font-family="Times,serif" font-size="11.00" fill="gray">Global</text>
</g>
<g id="clust2" class="cluster"><title>cluster_\Feeld</title>
<path fill="none" stroke="gray" d="M341.616,-160C341.616,-160 1207.02,-160 1207.02,-160 1213.02,-160 1219.02,-166 1219.02,-172 1219.02,-172 1219.02,-1754 1219.02,-1754 1219.02,-1760 1213.02,-1766 1207.02,-1766 1207.02,-1766 341.616,-1766 341.616,-1766 335.616,-1766 329.616,-1760 329.616,-1754 329.616,-1754 329.616,-172 329.616,-172 329.616,-166 335.616,-160 341.616,-160"/>
<text text-anchor="middle" x="774.32" y="-1753.2" font-family="Times,serif" font-size="11.00" fill="gray">Feeld</text>
</g>
<g id="clust3" class="cluster"><title>cluster_\Feeld\Field</title>
<path fill="none" stroke="gray" d="M729.94,-724C729.94,-724 1177.52,-724 1177.52,-724 1183.52,-724 1189.52,-730 1189.52,-736 1189.52,-736 1189.52,-1404 1189.52,-1404 1189.52,-1410 1183.52,-1416 1177.52,-1416 1177.52,-1416 729.94,-1416 729.94,-1416 723.94,-1416 717.94,-1410 717.94,-1404 717.94,-1404 717.94,-736 717.94,-736 717.94,-730 723.94,-724 729.94,-724"/>
<text text-anchor="middle" x="953.732" y="-1403.2" font-family="Times,serif" font-size="11.00" fill="gray">Field</text>
</g>
<g id="clust4" class="cluster"><title>cluster_\Feeld\Field\CommonProperties</title>
<path fill="none" stroke="gray" d="M737.94,-732C737.94,-732 901.94,-732 901.94,-732 907.94,-732 913.94,-738 913.94,-744 913.94,-744 913.94,-1332 913.94,-1332 913.94,-1338 907.94,-1344 901.94,-1344 901.94,-1344 737.94,-1344 737.94,-1344 731.94,-1344 725.94,-1338 725.94,-1332 725.94,-1332 725.94,-744 725.94,-744 725.94,-738 731.94,-732 737.94,-732"/>
<text text-anchor="middle" x="819.94" y="-1331.2" font-family="Times,serif" font-size="11.00" fill="gray">CommonProperties</text>
</g>
<g id="clust5" class="cluster"><title>cluster_\Feeld\DataType</title>
<path fill="none" stroke="gray" d="M349.616,-1424C349.616,-1424 1180.52,-1424 1180.52,-1424 1186.52,-1424 1192.52,-1430 1192.52,-1436 1192.52,-1436 1192.52,-1726 1192.52,-1726 1192.52,-1732 1186.52,-1738 1180.52,-1738 1180.52,-1738 349.616,-1738 349.616,-1738 343.616,-1738 337.616,-1732 337.616,-1726 337.616,-1726 337.616,-1436 337.616,-1436 337.616,-1430 343.616,-1424 349.616,-1424"/>
<text text-anchor="middle" x="765.07" y="-1725.2" font-family="Times,serif" font-size="11.00" fill="gray">DataType</text>
</g>
<g id="clust6" class="cluster"><title>cluster_\Feeld\DataType\Boundaries</title>
<path fill="none" stroke="gray" d="M357.616,-1432C357.616,-1432 541.616,-1432 541.616,-1432 547.616,-1432 553.616,-1438 553.616,-1444 553.616,-1444 553.616,-1654 553.616,-1654 553.616,-1660 547.616,-1666 541.616,-1666 541.616,-1666 357.616,-1666 357.616,-1666 351.616,-1666 345.616,-1660 345.616,-1654 345.616,-1654 345.616,-1444 345.616,-1444 345.616,-1438 351.616,-1432 357.616,-1432"/>
<text text-anchor="middle" x="449.616" y="-1653.2" font-family="Times,serif" font-size="11.00" fill="gray">Boundaries</text>
</g>
<g id="clust7" class="cluster"><title>cluster_\Feeld\Display</title>
<path fill="none" stroke="gray" d="M761.44,-248C761.44,-248 1199.02,-248 1199.02,-248 1205.02,-248 1211.02,-254 1211.02,-260 1211.02,-260 1211.02,-660 1211.02,-660 1211.02,-666 1205.02,-672 1199.02,-672 1199.02,-672 761.44,-672 761.44,-672 755.44,-672 749.44,-666 749.44,-660 749.44,-660 749.44,-260 749.44,-260 749.44,-254 755.44,-248 761.44,-248"/>
<text text-anchor="middle" x="980.232" y="-659.2" font-family="Times,serif" font-size="11.00" fill="gray">Display</text>
</g>
<g id="clust8" class="cluster"><title>cluster_\Feeld\Display\HTML</title>
<path fill="none" stroke="gray" d="M791.94,-302C791.94,-302 1191.02,-302 1191.02,-302 1197.02,-302 1203.02,-308 1203.02,-314 1203.02,-314 1203.02,-632 1203.02,-632 1203.02,-638 1197.02,-644 1191.02,-644 1191.02,-644 791.94,-644 791.94,-644 785.94,-644 779.94,-638 779.94,-632 779.94,-632 779.94,-314 779.94,-314 779.94,-308 785.94,-302 791.94,-302"/>
<text text-anchor="middle" x="991.482" y="-631.2" font-family="Times,serif" font-size="11.00" fill="gray">HTML</text>
</g>
<g id="clust9" class="cluster"><title>cluster_\Feeld\FieldCollection</title>
<path fill="none" stroke="gray" d="M1077.52,-168C1077.52,-168 1187.52,-168 1187.52,-168 1193.52,-168 1199.52,-174 1199.52,-180 1199.52,-180 1199.52,-228 1199.52,-228 1199.52,-234 1193.52,-240 1187.52,-240 1187.52,-240 1077.52,-240 1077.52,-240 1071.52,-240 1065.52,-234 1065.52,-228 1065.52,-228 1065.52,-180 1065.52,-180 1065.52,-174 1071.52,-168 1077.52,-168"/>
<text text-anchor="middle" x="1132.52" y="-227.2" font-family="Times,serif" font-size="11.00" fill="gray">FieldCollection</text>
</g>
<!-- \\Feeld\\Field\\CommonProperties\\MultipleChoiceInterface -->
<g id="node1" class="node"><title>\\Feeld\\Field\\CommonProperties\\MultipleChoiceInterface</title>
<polygon fill="none" stroke="black" points="905.94,-1316 733.94,-1316 733.94,-1280 905.94,-1280 905.94,-1316"/>
<text text-anchor="middle" x="819.94" y="-1295.2" font-family="Courier,monospace" font-size="11.00">MultipleChoiceInterface</text>
</g>
<!-- \\Feeld\\Field\\CommonProperties\\IdentifierInterface -->
<g id="node2" class="node"><title>\\Feeld\\Field\\CommonProperties\\IdentifierInterface</title>
<polygon fill="none" stroke="black" points="892.44,-1100 747.44,-1100 747.44,-1064 892.44,-1064 892.44,-1100"/>
<text text-anchor="middle" x="819.94" y="-1079.2" font-family="Courier,monospace" font-size="11.00">IdentifierInterface</text>
</g>
<!-- \\Feeld\\Field\\CommonProperties\\OptionsInterface -->
<g id="node3" class="node"><title>\\Feeld\\Field\\CommonProperties\\OptionsInterface</title>
<polygon fill="none" stroke="black" points="882.44,-1262 757.44,-1262 757.44,-1226 882.44,-1226 882.44,-1262"/>
<text text-anchor="middle" x="819.94" y="-1241.2" font-family="Courier,monospace" font-size="11.00">OptionsInterface</text>
</g>
<!-- \\Feeld\\Field\\CommonProperties\\RequiredInterface -->
<g id="node4" class="node"><title>\\Feeld\\Field\\CommonProperties\\RequiredInterface</title>
<polygon fill="none" stroke="black" points="885.44,-1208 754.44,-1208 754.44,-1172 885.44,-1172 885.44,-1208"/>
<text text-anchor="middle" x="819.94" y="-1187.2" font-family="Courier,monospace" font-size="11.00">RequiredInterface</text>
</g>
<!-- \\Wellid\\ValidatableInterface -->
<g id="node46" class="node"><title>\\Wellid\\ValidatableInterface</title>
<ellipse fill="none" stroke="black" cx="449.616" cy="-72" rx="111.581" ry="18"/>
<text text-anchor="middle" x="449.616" y="-68.3" font-family="Times,serif" font-size="14.00" fill="gray">\Wellid\ValidatableInterface</text>
</g>
<!-- \\Feeld\\Field\\CommonProperties\\RequiredInterface&#45;&gt;\\Wellid\\ValidatableInterface -->
<g id="edge40" class="edge"><title>\\Feeld\\Field\\CommonProperties\\RequiredInterface&#45;&gt;\\Wellid\\ValidatableInterface</title>
<path fill="none" stroke="black" d="M754.105,-1198.4C715.856,-1199.45 669.643,-1193.22 641.856,-1163 481.443,-988.559 723.942,-279.054 569.856,-99 565.554,-93.9731 560.532,-89.7701 555.028,-86.2649"/>
<polygon fill="none" stroke="black" points="556.468,-83.0624 546.019,-81.3129 553.096,-89.1969 556.468,-83.0624"/>
</g>
<!-- \\Sanitor\\SanitizableInterface -->
<g id="node47" class="node"><title>\\Sanitor\\SanitizableInterface</title>
<ellipse fill="none" stroke="black" cx="449.616" cy="-126" rx="111.28" ry="18"/>
<text text-anchor="middle" x="449.616" y="-122.3" font-family="Times,serif" font-size="14.00" fill="gray">\Sanitor\SanitizableInterface</text>
</g>
<!-- \\Feeld\\Field\\CommonProperties\\RequiredInterface&#45;&gt;\\Sanitor\\SanitizableInterface -->
<g id="edge41" class="edge"><title>\\Feeld\\Field\\CommonProperties\\RequiredInterface&#45;&gt;\\Sanitor\\SanitizableInterface</title>
<path fill="none" stroke="black" d="M754.432,-1197.26C716.792,-1197.76 671.107,-1191.36 641.856,-1163 491.82,-1017.55 457.296,-306.875 451.58,-154.713"/>
<polygon fill="none" stroke="black" points="455.064,-154.222 451.203,-144.356 448.069,-154.477 455.064,-154.222"/>
</g>
<!-- \\Feeld\\Field\\CommonProperties\\DefaultValueInterface -->
<g id="node5" class="node"><title>\\Feeld\\Field\\CommonProperties\\DefaultValueInterface</title>
<polygon fill="none" stroke="black" points="898.94,-1154 740.94,-1154 740.94,-1118 898.94,-1118 898.94,-1154"/>
<text text-anchor="middle" x="819.94" y="-1133.2" font-family="Courier,monospace" font-size="11.00">DefaultValueInterface</text>
</g>
<!-- \\Feeld\\Field\\CommonProperties\\DefaultValueInterface&#45;&gt;\\Wellid\\ValidatableInterface -->
<g id="edge43" class="edge"><title>\\Feeld\\Field\\CommonProperties\\DefaultValueInterface&#45;&gt;\\Wellid\\ValidatableInterface</title>
<path fill="none" stroke="black" d="M740.838,-1144.41C705.643,-1143.68 666.533,-1135.74 641.856,-1109 489.248,-943.645 716.466,-269.695 569.856,-99 565.499,-93.928 560.41,-89.6955 554.833,-86.1725"/>
<polygon fill="none" stroke="black" points="556.161,-82.9103 545.705,-81.2019 552.814,-89.058 556.161,-82.9103"/>
</g>
<!-- \\Feeld\\Field\\CommonProperties\\DefaultValueInterface&#45;&gt;\\Sanitor\\SanitizableInterface -->
<g id="edge44" class="edge"><title>\\Feeld\\Field\\CommonProperties\\DefaultValueInterface&#45;&gt;\\Sanitor\\SanitizableInterface</title>
<path fill="none" stroke="black" d="M740.884,-1143.01C706.345,-1141.8 667.768,-1133.87 641.856,-1109 499.144,-972.001 459.036,-301.774 451.888,-154.606"/>
<polygon fill="none" stroke="black" points="455.364,-154.011 451.395,-144.188 448.372,-154.342 455.364,-154.011"/>
</g>
<!-- \\Feeld\\Field\\CommonProperties\\Field -->
<g id="node6" class="node"><title>\\Feeld\\Field\\CommonProperties\\Field</title>
<polygon fill="none" stroke="black" points="846.94,-1046 792.94,-1046 792.94,-1010 846.94,-1010 846.94,-1046"/>
<text text-anchor="middle" x="819.94" y="-1025.2" font-family="Courier,monospace" font-size="11.00">Field</text>
</g>
<!-- \\Feeld\\Field\\CommonProperties\\Required -->
<g id="node7" class="node"><title>\\Feeld\\Field\\CommonProperties\\Required</title>
<polygon fill="none" stroke="black" points="855.44,-992 784.44,-992 784.44,-956 855.44,-956 855.44,-992"/>
<text text-anchor="middle" x="819.94" y="-971.2" font-family="Courier,monospace" font-size="11.00">Required</text>
</g>
<!-- \\Feeld\\Field\\CommonProperties\\DefaultValue -->
<g id="node8" class="node"><title>\\Feeld\\Field\\CommonProperties\\DefaultValue</title>
<polygon fill="none" stroke="black" points="868.94,-938 770.94,-938 770.94,-902 868.94,-902 868.94,-938"/>
<text text-anchor="middle" x="819.94" y="-917.2" font-family="Courier,monospace" font-size="11.00">DefaultValue</text>
</g>
<!-- \\Feeld\\Field\\CommonProperties\\Options -->
<g id="node9" class="node"><title>\\Feeld\\Field\\CommonProperties\\Options</title>
<polygon fill="none" stroke="black" points="851.94,-884 787.94,-884 787.94,-848 851.94,-848 851.94,-884"/>
<text text-anchor="middle" x="819.94" y="-863.2" font-family="Courier,monospace" font-size="11.00">Options</text>
</g>
<!-- \\Feeld\\Field\\CommonProperties\\Identifier -->
<g id="node10" class="node"><title>\\Feeld\\Field\\CommonProperties\\Identifier</title>
<polygon fill="none" stroke="black" points="861.94,-830 777.94,-830 777.94,-794 861.94,-794 861.94,-830"/>
<text text-anchor="middle" x="819.94" y="-809.2" font-family="Courier,monospace" font-size="11.00">Identifier</text>
</g>
<!-- \\Feeld\\Field\\CommonProperties\\MultipleChoice -->
<g id="node11" class="node"><title>\\Feeld\\Field\\CommonProperties\\MultipleChoice</title>
<polygon fill="none" stroke="black" points="875.44,-776 764.44,-776 764.44,-740 875.44,-740 875.44,-776"/>
<text text-anchor="middle" x="819.94" y="-755.2" font-family="Courier,monospace" font-size="11.00">MultipleChoice</text>
</g>
<!-- \\Feeld\\Field\\CloakedEntry -->
<g id="node12" class="node"><title>\\Feeld\\Field\\CloakedEntry</title>
<polygon fill="none" stroke="black" points="1181.52,-1388 1083.52,-1388 1083.52,-1352 1181.52,-1352 1181.52,-1388"/>
<text text-anchor="middle" x="1132.52" y="-1367.2" font-family="Courier,monospace" font-size="11.00">CloakedEntry</text>
</g>
<!-- \\Feeld\\Field\\Entry -->
<g id="node16" class="node"><title>\\Feeld\\Field\\Entry</title>
<polygon fill="none" stroke="black" points="846.94,-1388 792.94,-1388 792.94,-1352 846.94,-1352 846.94,-1388"/>
<text text-anchor="middle" x="819.94" y="-1367.2" font-family="Courier,monospace" font-size="11.00">Entry</text>
</g>
<!-- \\Feeld\\Field\\CloakedEntry&#45;&gt;\\Feeld\\Field\\Entry -->
<g id="edge1" class="edge"><title>\\Feeld\\Field\\CloakedEntry&#45;&gt;\\Feeld\\Field\\Entry</title>
<path fill="none" stroke="black" d="M1083.34,-1370C1020.91,-1370 913.459,-1370 857.391,-1370"/>
<polygon fill="none" stroke="black" points="857.216,-1366.5 847.216,-1370 857.216,-1373.5 857.216,-1366.5"/>
</g>
<!-- \\Feeld\\Field\\Select -->
<g id="node13" class="node"><title>\\Feeld\\Field\\Select</title>
<polygon fill="none" stroke="black" points="1161.02,-1262 1104.02,-1262 1104.02,-1226 1161.02,-1226 1161.02,-1262"/>
<text text-anchor="middle" x="1132.52" y="-1241.2" font-family="Courier,monospace" font-size="11.00">Select</text>
</g>
<!-- \\Feeld\\Field\\Select&#45;&gt;\\Feeld\\Field\\CommonProperties\\MultipleChoiceInterface -->
<g id="edge5" class="edge"><title>\\Feeld\\Field\\Select&#45;&gt;\\Feeld\\Field\\CommonProperties\\MultipleChoiceInterface</title>
<path fill="none" stroke="black" stroke-dasharray="1,5" d="M1103.98,-1249.97C1077.04,-1255.72 1034.81,-1264.48 998.024,-1271 971.55,-1275.69 942.761,-1280.3 916.239,-1284.33"/>
<polygon fill="none" stroke="black" points="915.559,-1280.9 906.195,-1285.85 916.606,-1287.82 915.559,-1280.9"/>
</g>
<!-- \\Feeld\\Field\\Select&#45;&gt;\\Feeld\\Field\\CommonProperties\\OptionsInterface -->
<g id="edge4" class="edge"><title>\\Feeld\\Field\\Select&#45;&gt;\\Feeld\\Field\\CommonProperties\\OptionsInterface</title>
<path fill="none" stroke="black" stroke-dasharray="1,5" d="M1103.96,-1244C1057.01,-1244 960.073,-1244 892.818,-1244"/>
<polygon fill="none" stroke="black" points="892.706,-1240.5 882.706,-1244 892.706,-1247.5 892.706,-1240.5"/>
</g>
<!-- \\Feeld\\FieldInterface -->
<g id="node41" class="node"><title>\\Feeld\\FieldInterface</title>
<polygon fill="none" stroke="black" points="875.44,-716 764.44,-716 764.44,-680 875.44,-680 875.44,-716"/>
<text text-anchor="middle" x="819.94" y="-695.2" font-family="Courier,monospace" font-size="11.00">FieldInterface</text>
</g>
<!-- \\Feeld\\Field\\Select&#45;&gt;\\Feeld\\FieldInterface -->
<g id="edge6" class="edge"><title>\\Feeld\\Field\\Select&#45;&gt;\\Feeld\\FieldInterface</title>
<path fill="none" stroke="black" stroke-dasharray="1,5" d="M1125.63,-1225.86C1113.55,-1188.39 1085.45,-1099.57 1065.52,-1024 1031.12,-893.527 1096.09,-820.684 998.024,-728 968.506,-700.102 923.182,-692.826 885.778,-692.41"/>
<polygon fill="none" stroke="black" points="885.44,-688.912 875.458,-692.464 885.476,-695.912 885.44,-688.912"/>
</g>
<!-- \\Feeld\\Field\\Checkbox -->
<g id="node14" class="node"><title>\\Feeld\\Field\\Checkbox</title>
<polygon fill="none" stroke="black" points="1168.02,-1015 1097.02,-1015 1097.02,-979 1168.02,-979 1168.02,-1015"/>
<text text-anchor="middle" x="1132.52" y="-994.2" font-family="Courier,monospace" font-size="11.00">Checkbox</text>
</g>
<!-- \\Feeld\\Field\\Checkbox&#45;&gt;\\Feeld\\Field\\CommonProperties\\OptionsInterface -->
<g id="edge12" class="edge"><title>\\Feeld\\Field\\Checkbox&#45;&gt;\\Feeld\\Field\\CommonProperties\\OptionsInterface</title>
<path fill="none" stroke="black" stroke-dasharray="1,5" d="M1126.33,-1015.23C1113.01,-1058.36 1073.28,-1166.79 998.024,-1217 967.297,-1237.5 926.962,-1244.79 892.55,-1246.71"/>
<polygon fill="none" stroke="black" points="892.392,-1243.22 882.547,-1247.13 892.686,-1250.21 892.392,-1243.22"/>
</g>
<!-- \\Feeld\\Field\\Checkbox&#45;&gt;\\Feeld\\FieldInterface -->
<g id="edge11" class="edge"><title>\\Feeld\\Field\\Checkbox&#45;&gt;\\Feeld\\FieldInterface</title>
<path fill="none" stroke="black" stroke-dasharray="1,5" d="M1128.39,-978.996C1118.8,-929.834 1085.07,-792.673 998.024,-728 965.994,-704.203 921.736,-696.701 885.48,-695.149"/>
<polygon fill="none" stroke="black" points="885.58,-691.651 875.483,-694.861 885.378,-698.648 885.58,-691.651"/>
</g>
<!-- \\Feeld\\Field\\Constant -->
<g id="node15" class="node"><title>\\Feeld\\Field\\Constant</title>
<polygon fill="none" stroke="black" points="1168.02,-768 1097.02,-768 1097.02,-732 1168.02,-732 1168.02,-768"/>
<text text-anchor="middle" x="1132.52" y="-747.2" font-family="Courier,monospace" font-size="11.00">Constant</text>
</g>
<!-- \\Feeld\\Field\\Constant&#45;&gt;\\Feeld\\FieldInterface -->
<g id="edge26" class="edge"><title>\\Feeld\\Field\\Constant&#45;&gt;\\Feeld\\FieldInterface</title>
<path fill="none" stroke="black" stroke-dasharray="1,5" d="M1096.8,-744.186C1045.79,-735.646 949.707,-719.559 885.499,-708.809"/>
<polygon fill="none" stroke="black" points="885.92,-705.331 875.48,-707.131 884.764,-712.235 885.92,-705.331"/>
</g>
<!-- \\Feeld\\Field\\Entry&#45;&gt;\\Feeld\\FieldInterface -->
<g id="edge31" class="edge"><title>\\Feeld\\Field\\Entry&#45;&gt;\\Feeld\\FieldInterface</title>
<path fill="none" stroke="black" stroke-dasharray="1,5" d="M847.08,-1376.19C893.91,-1385.06 988.976,-1394.71 1031.77,-1339 1072.53,-1285.96 1072.53,-790.042 1031.77,-737 998.7,-693.951 935.015,-687.185 886.073,-689.395"/>
<polygon fill="none" stroke="black" points="885.647,-685.914 875.869,-689.993 886.057,-692.902 885.647,-685.914"/>
</g>
<!-- \\Feeld\\DataType\\Boundaries\\LengthBoundariesInterface -->
<g id="node17" class="node"><title>\\Feeld\\DataType\\Boundaries\\LengthBoundariesInterface</title>
<polygon fill="none" stroke="black" points="542.116,-1638 357.116,-1638 357.116,-1602 542.116,-1602 542.116,-1638"/>
<text text-anchor="middle" x="449.616" y="-1617.2" font-family="Courier,monospace" font-size="11.00">LengthBoundariesInterface</text>
</g>
<!-- \\Feeld\\DataType\\Boundaries\\NumericBoundariesInterface -->
<g id="node18" class="node"><title>\\Feeld\\DataType\\Boundaries\\NumericBoundariesInterface</title>
<polygon fill="none" stroke="black" points="545.616,-1584 353.616,-1584 353.616,-1548 545.616,-1548 545.616,-1584"/>
<text text-anchor="middle" x="449.616" y="-1563.2" font-family="Courier,monospace" font-size="11.00">NumericBoundariesInterface</text>
</g>
<!-- \\Feeld\\DataType\\Boundaries\\LengthBoundaries -->
<g id="node19" class="node"><title>\\Feeld\\DataType\\Boundaries\\LengthBoundaries</title>
<polygon fill="none" stroke="black" points="512.116,-1530 387.116,-1530 387.116,-1494 512.116,-1494 512.116,-1530"/>
<text text-anchor="middle" x="449.616" y="-1509.2" font-family="Courier,monospace" font-size="11.00">LengthBoundaries</text>
</g>
<!-- \\Feeld\\DataType\\Boundaries\\NumericBoundaries -->
<g id="node20" class="node"><title>\\Feeld\\DataType\\Boundaries\\NumericBoundaries</title>
<polygon fill="none" stroke="black" points="515.116,-1476 384.116,-1476 384.116,-1440 515.116,-1440 515.116,-1476"/>
<text text-anchor="middle" x="449.616" y="-1455.2" font-family="Courier,monospace" font-size="11.00">NumericBoundaries</text>
</g>
<!-- \\Feeld\\DataType\\Date -->
<g id="node21" class="node"><title>\\Feeld\\DataType\\Date</title>
<polygon fill="none" stroke="black" points="846.94,-1710 792.94,-1710 792.94,-1674 846.94,-1674 846.94,-1710"/>
<text text-anchor="middle" x="819.94" y="-1689.2" font-family="Courier,monospace" font-size="11.00">Date</text>
</g>
<!-- \\Feeld\\DataType\\DataTypeInterface -->
<g id="node29" class="node"><title>\\Feeld\\DataType\\DataTypeInterface</title>
<polygon fill="none" stroke="black" points="515.116,-1710 384.116,-1710 384.116,-1674 515.116,-1674 515.116,-1710"/>
<text text-anchor="middle" x="449.616" y="-1689.2" font-family="Courier,monospace" font-size="11.00">DataTypeInterface</text>
</g>
<!-- \\Feeld\\DataType\\Date&#45;&gt;\\Feeld\\DataType\\DataTypeInterface -->
<g id="edge2" class="edge"><title>\\Feeld\\DataType\\Date&#45;&gt;\\Feeld\\DataType\\DataTypeInterface</title>
<path fill="none" stroke="black" stroke-dasharray="1,5" d="M792.746,-1692C737.685,-1692 608.192,-1692 525.251,-1692"/>
<polygon fill="none" stroke="black" points="525.125,-1688.5 515.125,-1692 525.125,-1695.5 525.125,-1688.5"/>
</g>
<!-- \\Feeld\\DataType\\String -->
<g id="node22" class="node"><title>\\Feeld\\DataType\\String</title>
<polygon fill="none" stroke="black" points="848.44,-1656 791.44,-1656 791.44,-1620 848.44,-1620 848.44,-1656"/>
<text text-anchor="middle" x="819.94" y="-1635.2" font-family="Courier,monospace" font-size="11.00">String</text>
</g>
<!-- \\Feeld\\DataType\\String&#45;&gt;\\Feeld\\DataType\\Boundaries\\LengthBoundariesInterface -->
<g id="edge10" class="edge"><title>\\Feeld\\DataType\\String&#45;&gt;\\Feeld\\DataType\\Boundaries\\LengthBoundariesInterface</title>
<path fill="none" stroke="black" stroke-dasharray="1,5" d="M791.256,-1636.65C741.279,-1634.2 633.664,-1628.95 552.68,-1624.99"/>
<polygon fill="none" stroke="black" points="552.6,-1621.48 542.441,-1624.49 552.259,-1628.47 552.6,-1621.48"/>
</g>
<!-- \\Feeld\\DataType\\String&#45;&gt;\\Feeld\\DataType\\DataTypeInterface -->
<g id="edge9" class="edge"><title>\\Feeld\\DataType\\String&#45;&gt;\\Feeld\\DataType\\DataTypeInterface</title>
<path fill="none" stroke="black" stroke-dasharray="1,5" d="M791.256,-1642.06C735.366,-1650.25 607.392,-1669.02 525.193,-1681.07"/>
<polygon fill="none" stroke="black" points="524.542,-1677.62 515.155,-1682.54 525.557,-1684.55 524.542,-1677.62"/>
</g>
<!-- \\Feeld\\DataType\\Integer -->
<g id="node23" class="node"><title>\\Feeld\\DataType\\Integer</title>
<polygon fill="none" stroke="black" points="851.94,-1602 787.94,-1602 787.94,-1566 851.94,-1566 851.94,-1602"/>
<text text-anchor="middle" x="819.94" y="-1581.2" font-family="Courier,monospace" font-size="11.00">Integer</text>
</g>
<!-- \\Feeld\\DataType\\Integer&#45;&gt;\\Feeld\\DataType\\Boundaries\\LengthBoundariesInterface -->
<g id="edge19" class="edge"><title>\\Feeld\\DataType\\Integer&#45;&gt;\\Feeld\\DataType\\Boundaries\\LengthBoundariesInterface</title>
<path fill="none" stroke="black" stroke-dasharray="1,5" d="M787.854,-1587.04C736.462,-1592.06 631.594,-1602.31 552.365,-1610.06"/>
<polygon fill="none" stroke="black" points="551.958,-1606.58 542.346,-1611.03 552.639,-1613.54 551.958,-1606.58"/>
</g>
<!-- \\Feeld\\DataType\\Integer&#45;&gt;\\Feeld\\DataType\\Boundaries\\NumericBoundariesInterface -->
<g id="edge20" class="edge"><title>\\Feeld\\DataType\\Integer&#45;&gt;\\Feeld\\DataType\\Boundaries\\NumericBoundariesInterface</title>
<path fill="none" stroke="black" stroke-dasharray="1,5" d="M787.854,-1582.48C737.313,-1580.01 635.055,-1575.01 556.324,-1571.17"/>
<polygon fill="none" stroke="black" points="556.028,-1567.65 545.869,-1570.65 555.686,-1574.64 556.028,-1567.65"/>
</g>
<!-- \\Feeld\\DataType\\Integer&#45;&gt;\\Feeld\\DataType\\DataTypeInterface -->
<g id="edge18" class="edge"><title>\\Feeld\\DataType\\Integer&#45;&gt;\\Feeld\\DataType\\DataTypeInterface</title>
<path fill="none" stroke="black" stroke-dasharray="1,5" d="M787.796,-1583.84C751.299,-1584.73 689.727,-1589.69 641.856,-1611 604.061,-1627.83 607.384,-1652.59 569.856,-1670 555.993,-1676.43 540.404,-1680.99 525.182,-1684.21"/>
<polygon fill="none" stroke="black" points="524.401,-1680.8 515.254,-1686.14 525.738,-1687.67 524.401,-1680.8"/>
</g>
<!-- \\Feeld\\DataType\\URL -->
<g id="node24" class="node"><title>\\Feeld\\DataType\\URL</title>
<polygon fill="none" stroke="black" points="1159.52,-1710 1105.52,-1710 1105.52,-1674 1159.52,-1674 1159.52,-1710"/>
<text text-anchor="middle" x="1132.52" y="-1689.2" font-family="Courier,monospace" font-size="11.00">URL</text>
</g>
<!-- \\Feeld\\DataType\\URL&#45;&gt;\\Feeld\\DataType\\String -->
<g id="edge21" class="edge"><title>\\Feeld\\DataType\\URL&#45;&gt;\\Feeld\\DataType\\String</title>
<path fill="none" stroke="black" d="M1105.5,-1686.35C1078.65,-1680.61 1035.51,-1671.64 998.024,-1665 950.087,-1656.5 894.558,-1648.3 858.648,-1643.21"/>
<polygon fill="none" stroke="black" points="859.004,-1639.73 848.614,-1641.8 858.028,-1646.66 859.004,-1639.73"/>
</g>
<!-- \\Feeld\\DataType\\Email -->
<g id="node25" class="node"><title>\\Feeld\\DataType\\Email</title>
<polygon fill="none" stroke="black" points="1159.52,-1656 1105.52,-1656 1105.52,-1620 1159.52,-1620 1159.52,-1656"/>
<text text-anchor="middle" x="1132.52" y="-1635.2" font-family="Courier,monospace" font-size="11.00">Email</text>
</g>
<!-- \\Feeld\\DataType\\Email&#45;&gt;\\Feeld\\DataType\\String -->
<g id="edge22" class="edge"><title>\\Feeld\\DataType\\Email&#45;&gt;\\Feeld\\DataType\\String</title>
<path fill="none" stroke="black" d="M1105.31,-1638C1050.31,-1638 922.692,-1638 858.802,-1638"/>
<polygon fill="none" stroke="black" points="858.747,-1634.5 848.747,-1638 858.747,-1641.5 858.747,-1634.5"/>
</g>
<!-- \\Feeld\\DataType\\Country -->
<g id="node26" class="node"><title>\\Feeld\\DataType\\Country</title>
<polygon fill="none" stroke="black" points="1164.52,-1602 1100.52,-1602 1100.52,-1566 1164.52,-1566 1164.52,-1602"/>
<text text-anchor="middle" x="1132.52" y="-1581.2" font-family="Courier,monospace" font-size="11.00">Country</text>
</g>
<!-- \\Feeld\\DataType\\Country&#45;&gt;\\Feeld\\DataType\\String -->
<g id="edge25" class="edge"><title>\\Feeld\\DataType\\Country&#45;&gt;\\Feeld\\DataType\\String</title>
<path fill="none" stroke="black" d="M1100.32,-1590.76C1073.31,-1596.49 1033.18,-1604.77 998.024,-1611 950.087,-1619.5 894.558,-1627.7 858.648,-1632.79"/>
<polygon fill="none" stroke="black" points="858.028,-1629.34 848.614,-1634.2 859.004,-1636.27 858.028,-1629.34"/>
</g>
<!-- \\Feeld\\DataType\\File -->
<g id="node27" class="node"><title>\\Feeld\\DataType\\File</title>
<polygon fill="none" stroke="black" points="1159.52,-1548 1105.52,-1548 1105.52,-1512 1159.52,-1512 1159.52,-1548"/>
<text text-anchor="middle" x="1132.52" y="-1527.2" font-family="Courier,monospace" font-size="11.00">File</text>
</g>
<!-- \\Feeld\\DataType\\File&#45;&gt;\\Feeld\\DataType\\String -->
<g id="edge28" class="edge"><title>\\Feeld\\DataType\\File&#45;&gt;\\Feeld\\DataType\\String</title>
<path fill="none" stroke="black" d="M1105.32,-1538.74C1092.87,-1543.39 1078.01,-1549.66 1065.52,-1557 1032.41,-1576.47 1033.21,-1595.58 998.024,-1611 952.915,-1630.77 895.848,-1636.41 858.881,-1637.84"/>
<polygon fill="none" stroke="black" points="858.443,-1634.35 848.552,-1638.15 858.652,-1641.35 858.443,-1634.35"/>
</g>
<!-- \\Feeld\\DataType\\Float -->
<g id="node28" class="node"><title>\\Feeld\\DataType\\Float</title>
<polygon fill="none" stroke="black" points="846.94,-1548 792.94,-1548 792.94,-1512 846.94,-1512 846.94,-1548"/>
<text text-anchor="middle" x="819.94" y="-1527.2" font-family="Courier,monospace" font-size="11.00">Float</text>
</g>
<!-- \\Feeld\\DataType\\Float&#45;&gt;\\Feeld\\DataType\\Boundaries\\LengthBoundariesInterface -->
<g id="edge33" class="edge"><title>\\Feeld\\DataType\\Float&#45;&gt;\\Feeld\\DataType\\Boundaries\\LengthBoundariesInterface</title>
<path fill="none" stroke="black" stroke-dasharray="1,5" d="M792.853,-1531.43C757.796,-1533.92 693.875,-1540.48 641.856,-1557 607.757,-1567.83 603.547,-1580.96 569.856,-1593 563.822,-1595.16 557.553,-1597.18 551.189,-1599.07"/>
<polygon fill="none" stroke="black" points="549.788,-1595.83 541.128,-1601.93 551.705,-1602.56 549.788,-1595.83"/>
</g>
<!-- \\Feeld\\DataType\\Float&#45;&gt;\\Feeld\\DataType\\Boundaries\\NumericBoundariesInterface -->
<g id="edge34" class="edge"><title>\\Feeld\\DataType\\Float&#45;&gt;\\Feeld\\DataType\\Boundaries\\NumericBoundariesInterface</title>
<path fill="none" stroke="black" stroke-dasharray="1,5" d="M792.746,-1532.56C744.124,-1537.31 637.461,-1547.74 556.066,-1555.69"/>
<polygon fill="none" stroke="black" points="555.38,-1552.24 545.768,-1556.7 556.061,-1559.21 555.38,-1552.24"/>
</g>
<!-- \\Feeld\\DataType\\Float&#45;&gt;\\Feeld\\DataType\\DataTypeInterface -->
<g id="edge32" class="edge"><title>\\Feeld\\DataType\\Float&#45;&gt;\\Feeld\\DataType\\DataTypeInterface</title>
<path fill="none" stroke="black" stroke-dasharray="1,5" d="M792.867,-1527.59C756.112,-1525.53 688.368,-1526.7 641.856,-1557 591.959,-1589.51 619.24,-1636.72 569.856,-1670 556.753,-1678.83 541.083,-1684.37 525.478,-1687.8"/>
<polygon fill="none" stroke="black" points="524.423,-1684.44 515.26,-1689.76 525.74,-1691.31 524.423,-1684.44"/>
</g>
<!-- \\Wellid\\ValidatorHolderInterface -->
<g id="node48" class="node"><title>\\Wellid\\ValidatorHolderInterface</title>
<ellipse fill="none" stroke="black" cx="128.689" cy="-1692" rx="128.877" ry="18"/>
<text text-anchor="middle" x="128.689" y="-1688.3" font-family="Times,serif" font-size="14.00" fill="gray">\Wellid\ValidatorHolderInterface</text>
</g>
<!-- \\Feeld\\DataType\\DataTypeInterface&#45;&gt;\\Wellid\\ValidatorHolderInterface -->
<g id="edge42" class="edge"><title>\\Feeld\\DataType\\DataTypeInterface&#45;&gt;\\Wellid\\ValidatorHolderInterface</title>
<path fill="none" stroke="black" d="M384.077,-1692C350.518,-1692 308.14,-1692 267.647,-1692"/>
<polygon fill="none" stroke="black" points="267.399,-1688.5 257.399,-1692 267.399,-1695.5 267.399,-1688.5"/>
</g>
<!-- \\Feeld\\DataType\\DataTypeTrait -->
<g id="node30" class="node"><title>\\Feeld\\DataType\\DataTypeTrait</title>
<polygon fill="none" stroke="black" points="1184.52,-1481 1080.52,-1481 1080.52,-1445 1184.52,-1445 1184.52,-1481"/>
<text text-anchor="middle" x="1132.52" y="-1460.2" font-family="Courier,monospace" font-size="11.00">DataTypeTrait</text>
</g>
<!-- \\Feeld\\Display\\HTML\\Textarea -->
<g id="node31" class="node"><title>\\Feeld\\Display\\HTML\\Textarea</title>
<polygon fill="none" stroke="black" points="1168.02,-454 1097.02,-454 1097.02,-418 1168.02,-418 1168.02,-454"/>
<text text-anchor="middle" x="1132.52" y="-433.2" font-family="Courier,monospace" font-size="11.00">Textarea</text>
</g>
<!-- \\Feeld\\Display\\HTML\\Element -->
<g id="node33" class="node"><title>\\Feeld\\Display\\HTML\\Element</title>
<polygon fill="none" stroke="black" points="851.94,-508 787.94,-508 787.94,-472 851.94,-472 851.94,-508"/>
<text text-anchor="middle" x="819.94" y="-487.2" font-family="Courier,monospace" font-size="11.00">Element</text>
</g>
<!-- \\Feeld\\Display\\HTML\\Textarea&#45;&gt;\\Feeld\\Display\\HTML\\Element -->
<g id="edge7" class="edge"><title>\\Feeld\\Display\\HTML\\Textarea&#45;&gt;\\Feeld\\Display\\HTML\\Element</title>
<path fill="none" stroke="black" d="M1096.89,-445.425C1070.08,-452.45 1031.91,-461.854 998.024,-468 951.83,-476.379 898.273,-482.547 862.258,-486.186"/>
<polygon fill="none" stroke="black" points="861.735,-482.72 852.129,-487.189 862.425,-489.686 861.735,-482.72"/>
</g>
<!-- \\Feeld\\Display\\DisplayInterface -->
<g id="node39" class="node"><title>\\Feeld\\Display\\DisplayInterface</title>
<polygon fill="none" stroke="black" points="882.44,-294 757.44,-294 757.44,-258 882.44,-258 882.44,-294"/>
<text text-anchor="middle" x="819.94" y="-273.2" font-family="Courier,monospace" font-size="11.00">DisplayInterface</text>
</g>
<!-- \\Feeld\\Display\\HTML\\Textarea&#45;&gt;\\Feeld\\Display\\DisplayInterface -->
<g id="edge8" class="edge"><title>\\Feeld\\Display\\HTML\\Textarea&#45;&gt;\\Feeld\\Display\\DisplayInterface</title>
<path fill="none" stroke="black" stroke-dasharray="1,5" d="M1097,-426.583C1086.11,-422.44 1074.57,-416.714 1065.52,-409 1021.6,-371.523 1046.51,-329.353 998.024,-298 967.376,-278.181 927.432,-271.944 893.239,-270.986"/>
<polygon fill="none" stroke="black" points="892.874,-267.481 882.829,-270.849 892.782,-274.48 892.874,-267.481"/>
</g>
<!-- \\Feeld\\Display\\HTML\\Button -->
<g id="node32" class="node"><title>\\Feeld\\Display\\HTML\\Button</title>
<polygon fill="none" stroke="black" points="1161.02,-400 1104.02,-400 1104.02,-364 1161.02,-364 1161.02,-400"/>
<text text-anchor="middle" x="1132.52" y="-379.2" font-family="Courier,monospace" font-size="11.00">Button</text>
</g>
<!-- \\Feeld\\Display\\HTML\\Button&#45;&gt;\\Feeld\\Display\\HTML\\Element -->
<g id="edge13" class="edge"><title>\\Feeld\\Display\\HTML\\Button&#45;&gt;\\Feeld\\Display\\HTML\\Element</title>
<path fill="none" stroke="black" d="M1103.89,-390.981C1091.68,-395.526 1077.43,-401.648 1065.52,-409 1031.62,-429.939 1034.39,-451.718 998.024,-468 954.66,-487.415 899.7,-491.463 862.6,-491.589"/>
<polygon fill="none" stroke="black" points="862.186,-488.086 852.163,-491.523 862.141,-495.086 862.186,-488.086"/>
</g>
<!-- \\Feeld\\Display\\HTML\\Button&#45;&gt;\\Feeld\\Display\\DisplayInterface -->
<g id="edge14" class="edge"><title>\\Feeld\\Display\\HTML\\Button&#45;&gt;\\Feeld\\Display\\DisplayInterface</title>
<path fill="none" stroke="black" stroke-dasharray="1,5" d="M1103.95,-372.924C1091.75,-368.36 1077.49,-362.25 1065.52,-355 1031.94,-334.651 1034,-313.739 998.024,-298 965.229,-283.651 925.963,-277.774 892.748,-275.643"/>
<polygon fill="none" stroke="black" points="892.822,-272.142 882.648,-275.097 892.444,-279.132 892.822,-272.142"/>
</g>
<!-- \\Feeld\\Display\\HTML\\Input -->
<g id="node34" class="node"><title>\\Feeld\\Display\\HTML\\Input</title>
<polygon fill="none" stroke="black" points="1159.52,-562 1105.52,-562 1105.52,-526 1159.52,-526 1159.52,-562"/>
<text text-anchor="middle" x="1132.52" y="-541.2" font-family="Courier,monospace" font-size="11.00">Input</text>
</g>
<!-- \\Feeld\\Display\\HTML\\Input&#45;&gt;\\Feeld\\Display\\HTML\\Element -->
<g id="edge23" class="edge"><title>\\Feeld\\Display\\HTML\\Input&#45;&gt;\\Feeld\\Display\\HTML\\Element</title>
<path fill="none" stroke="black" d="M1105.11,-536.746C1078.31,-529.604 1035.55,-518.806 998.024,-512 951.83,-503.621 898.273,-497.453 862.258,-493.814"/>
<polygon fill="none" stroke="black" points="862.425,-490.314 852.129,-492.811 861.735,-497.28 862.425,-490.314"/>
</g>
<!-- \\Feeld\\Display\\HTML\\Input&#45;&gt;\\Feeld\\Display\\DisplayInterface -->
<g id="edge24" class="edge"><title>\\Feeld\\Display\\HTML\\Input&#45;&gt;\\Feeld\\Display\\DisplayInterface</title>
<path fill="none" stroke="black" stroke-dasharray="1,5" d="M1105.24,-538.903C1091.69,-535.018 1075.88,-528.329 1065.52,-517 996.792,-441.836 1076.07,-363.436 998.024,-298 969.394,-273.997 928.441,-267.727 893.128,-267.808"/>
<polygon fill="none" stroke="black" points="892.783,-264.314 882.852,-268.007 892.918,-271.313 892.783,-264.314"/>
</g>
<!-- \\Feeld\\Display\\HTML\\Option -->
<g id="node35" class="node"><title>\\Feeld\\Display\\HTML\\Option</title>
<polygon fill="none" stroke="black" points="1161.02,-616 1104.02,-616 1104.02,-580 1161.02,-580 1161.02,-616"/>
<text text-anchor="middle" x="1132.52" y="-595.2" font-family="Courier,monospace" font-size="11.00">Option</text>
</g>
<!-- \\Feeld\\Display\\HTML\\Option&#45;&gt;\\Feeld\\Display\\HTML\\Element -->
<g id="edge27" class="edge"><title>\\Feeld\\Display\\HTML\\Option&#45;&gt;\\Feeld\\Display\\HTML\\Element</title>
<path fill="none" stroke="black" d="M1103.89,-589.019C1091.68,-584.474 1077.43,-578.352 1065.52,-571 1031.62,-550.061 1034.39,-528.282 998.024,-512 954.66,-492.585 899.7,-488.537 862.6,-488.411"/>
<polygon fill="none" stroke="black" points="862.141,-484.914 852.163,-488.477 862.186,-491.914 862.141,-484.914"/>
</g>
<!-- \\Feeld\\Display\\HTML\\Select -->
<g id="node36" class="node"><title>\\Feeld\\Display\\HTML\\Select</title>
<polygon fill="none" stroke="black" points="1161.02,-508 1104.02,-508 1104.02,-472 1161.02,-472 1161.02,-508"/>
<text text-anchor="middle" x="1132.52" y="-487.2" font-family="Courier,monospace" font-size="11.00">Select</text>
</g>
<!-- \\Feeld\\Display\\HTML\\Select&#45;&gt;\\Feeld\\Display\\HTML\\Element -->
<g id="edge29" class="edge"><title>\\Feeld\\Display\\HTML\\Select&#45;&gt;\\Feeld\\Display\\HTML\\Element</title>
<path fill="none" stroke="black" d="M1103.96,-490C1049.26,-490 926.698,-490 862.289,-490"/>
<polygon fill="none" stroke="black" points="862.095,-486.5 852.095,-490 862.095,-493.5 862.095,-486.5"/>
</g>
<!-- \\Feeld\\Display\\HTML\\Select&#45;&gt;\\Feeld\\Display\\DisplayInterface -->
<g id="edge30" class="edge"><title>\\Feeld\\Display\\HTML\\Select&#45;&gt;\\Feeld\\Display\\DisplayInterface</title>
<path fill="none" stroke="black" stroke-dasharray="1,5" d="M1104,-484.029C1090.94,-479.984 1075.94,-473.417 1065.52,-463 1009.5,-406.974 1060.95,-346.142 998.024,-298 968.463,-275.385 927.646,-269.151 892.649,-268.904"/>
<polygon fill="none" stroke="black" points="892.44,-265.406 882.472,-268.996 892.503,-272.405 892.44,-265.406"/>
</g>
<!-- \\Feeld\\Display\\HTML\\DisplayHTMLTrait -->
<g id="node37" class="node"><title>\\Feeld\\Display\\HTML\\DisplayHTMLTrait</title>
<polygon fill="none" stroke="black" points="1195.02,-346 1070.02,-346 1070.02,-310 1195.02,-310 1195.02,-346"/>
<text text-anchor="middle" x="1132.52" y="-325.2" font-family="Courier,monospace" font-size="11.00">DisplayHTMLTrait</text>
</g>
<!-- \\Feeld\\Display\\NoDisplay -->
<g id="node38" class="node"><title>\\Feeld\\Display\\NoDisplay</title>
<polygon fill="none" stroke="black" points="1171.02,-292 1094.02,-292 1094.02,-256 1171.02,-256 1171.02,-292"/>
<text text-anchor="middle" x="1132.52" y="-271.2" font-family="Courier,monospace" font-size="11.00">NoDisplay</text>
</g>
<!-- \\Feeld\\Display\\NoDisplay&#45;&gt;\\Feeld\\Display\\DisplayInterface -->
<g id="edge3" class="edge"><title>\\Feeld\\Display\\NoDisplay&#45;&gt;\\Feeld\\Display\\DisplayInterface</title>
<path fill="none" stroke="black" stroke-dasharray="1,5" d="M1093.75,-274.243C1043.98,-274.564 955.429,-275.134 892.727,-275.538"/>
<polygon fill="none" stroke="black" points="892.484,-272.039 882.507,-275.604 892.529,-279.039 892.484,-272.039"/>
</g>
<!-- \\Feeld\\FieldCollection\\FieldCollection -->
<g id="node40" class="node"><title>\\Feeld\\FieldCollection\\FieldCollection</title>
<polygon fill="none" stroke="black" points="1191.52,-212 1073.52,-212 1073.52,-176 1191.52,-176 1191.52,-212"/>
<text text-anchor="middle" x="1132.52" y="-191.2" font-family="Courier,monospace" font-size="11.00">FieldCollection</text>
</g>
<!-- \\Feeld\\FieldCollection\\FieldCollectionInterface -->
<g id="node42" class="node"><title>\\Feeld\\FieldCollection\\FieldCollectionInterface</title>
<ellipse fill="none" stroke="black" cx="819.94" cy="-126" rx="178.168" ry="18"/>
<text text-anchor="middle" x="819.94" y="-122.3" font-family="Times,serif" font-size="14.00" fill="gray">\Feeld\FieldCollection\FieldCollectionInterface</text>
</g>
<!-- \\Feeld\\FieldCollection\\FieldCollection&#45;&gt;\\Feeld\\FieldCollection\\FieldCollectionInterface -->
<g id="edge15" class="edge"><title>\\Feeld\\FieldCollection\\FieldCollection&#45;&gt;\\Feeld\\FieldCollection\\FieldCollectionInterface</title>
<path fill="none" stroke="black" stroke-dasharray="1,5" d="M1073.47,-181.289C1026.12,-170.922 958.575,-156.134 905.256,-144.46"/>
<polygon fill="none" stroke="black" points="905.991,-141.039 895.474,-142.319 904.494,-147.877 905.991,-141.039"/>
</g>
<!-- \\Iterator -->
<g id="node43" class="node"><title>\\Iterator</title>
<ellipse fill="none" stroke="black" cx="819.94" cy="-72" rx="38.9931" ry="18"/>
<text text-anchor="middle" x="819.94" y="-68.3" font-family="Times,serif" font-size="14.00" fill="gray">\Iterator</text>
</g>
<!-- \\Feeld\\FieldCollection\\FieldCollection&#45;&gt;\\Iterator -->
<g id="edge16" class="edge"><title>\\Feeld\\FieldCollection\\FieldCollection&#45;&gt;\\Iterator</title>
<path fill="none" stroke="black" stroke-dasharray="1,5" d="M1112.48,-175.961C1088.05,-153.94 1043.37,-117.37 998.024,-99 956.705,-82.262 906.135,-75.8032 869.629,-73.36"/>
<polygon fill="none" stroke="black" points="869.441,-69.8429 859.252,-72.7479 869.029,-76.8308 869.441,-69.8429"/>
</g>
<!-- \\Countable -->
<g id="node44" class="node"><title>\\Countable</title>
<ellipse fill="none" stroke="black" cx="819.94" cy="-18" rx="49.2915" ry="18"/>
<text text-anchor="middle" x="819.94" y="-14.3" font-family="Times,serif" font-size="14.00" fill="gray">\Countable</text>
</g>
<!-- \\Feeld\\FieldCollection\\FieldCollection&#45;&gt;\\Countable -->
<g id="edge17" class="edge"><title>\\Feeld\\FieldCollection\\FieldCollection&#45;&gt;\\Countable</title>
<path fill="none" stroke="black" stroke-dasharray="1,5" d="M1121.21,-175.91C1101.73,-143.614 1056.22,-76.4746 998.024,-45 961.923,-25.4763 915.982,-18.9067 879.94,-17.1237"/>
<polygon fill="none" stroke="black" points="879.702,-13.6122 869.575,-16.7278 879.434,-20.6071 879.702,-13.6122"/>
</g>
<!-- \\Feeld\\FieldInterface&#45;&gt;\\Feeld\\Field\\CommonProperties\\IdentifierInterface -->
<g id="edge38" class="edge"><title>\\Feeld\\FieldInterface&#45;&gt;\\Feeld\\Field\\CommonProperties\\IdentifierInterface</title>
<path fill="none" stroke="black" d="M875.869,-689.993C925.8,-686.406 996.348,-690.888 1031.77,-737 1073.61,-791.452 1073.61,-991.548 1031.77,-1046 1002.34,-1084.31 948.482,-1093.07 902.438,-1092.38"/>
<polygon fill="none" stroke="black" points="902.541,-1088.88 892.442,-1092.08 902.333,-1095.88 902.541,-1088.88"/>
</g>
<!-- \\Feeld\\FieldInterface&#45;&gt;\\Feeld\\Field\\CommonProperties\\RequiredInterface -->
<g id="edge39" class="edge"><title>\\Feeld\\FieldInterface&#45;&gt;\\Feeld\\Field\\CommonProperties\\RequiredInterface</title>
<path fill="none" stroke="black" d="M875.869,-689.993C925.8,-686.406 996.348,-690.888 1031.77,-737 1060,-773.742 1060,-1117.26 1031.77,-1154 1000.91,-1194.17 943.194,-1201.85 895.789,-1200.21"/>
<polygon fill="none" stroke="black" points="895.695,-1196.7 885.536,-1199.71 895.352,-1203.7 895.695,-1196.7"/>
</g>
<!-- \\Feeld\\FieldInterface&#45;&gt;\\Feeld\\Field\\CommonProperties\\DefaultValueInterface -->
<g id="edge37" class="edge"><title>\\Feeld\\FieldInterface&#45;&gt;\\Feeld\\Field\\CommonProperties\\DefaultValueInterface</title>
<path fill="none" stroke="black" d="M875.869,-689.993C925.8,-686.406 996.348,-690.888 1031.77,-737 1056.35,-768.984 1056.35,-1068.02 1031.77,-1100 1003.78,-1136.43 953.699,-1146.14 909.255,-1146.41"/>
<polygon fill="none" stroke="black" points="909.019,-1142.91 898.985,-1146.31 908.95,-1149.91 909.019,-1142.91"/>
</g>
<!-- \\Wellid\\SanitorBridgeInterface -->
<g id="node45" class="node"><title>\\Wellid\\SanitorBridgeInterface</title>
<ellipse fill="none" stroke="black" cx="449.616" cy="-18" rx="120.479" ry="18"/>
<text text-anchor="middle" x="449.616" y="-14.3" font-family="Times,serif" font-size="14.00" fill="gray">\Wellid\SanitorBridgeInterface</text>
</g>
<!-- \\Feeld\\FieldInterface&#45;&gt;\\Wellid\\SanitorBridgeInterface -->
<g id="edge35" class="edge"><title>\\Feeld\\FieldInterface&#45;&gt;\\Wellid\\SanitorBridgeInterface</title>
<path fill="none" stroke="black" d="M764.076,-697.743C724.039,-694.418 671.744,-682.969 641.856,-648 466.492,-442.828 750.545,-245.498 569.856,-45 565.948,-40.664 561.504,-36.948 556.684,-33.7688"/>
<polygon fill="none" stroke="black" points="558.057,-30.5225 547.636,-28.6081 554.589,-36.603 558.057,-30.5225"/>
</g>
<!-- \\Feeld\\FieldInterface&#45;&gt;\\Wellid\\ValidatableInterface -->
<g id="edge36" class="edge"><title>\\Feeld\\FieldInterface&#45;&gt;\\Wellid\\ValidatableInterface</title>
<path fill="none" stroke="black" d="M764.192,-697.643C724.215,-694.267 671.946,-682.796 641.856,-648 480.886,-461.858 735.656,-280.852 569.856,-99 565.196,-93.8889 559.79,-89.6416 553.904,-86.1209"/>
<polygon fill="none" stroke="black" points="555.454,-82.9817 544.968,-81.4665 552.22,-89.1901 555.454,-82.9817"/>
</g>
</g>
</svg>
