<?xml version="1.0" encoding="UTF-8" standalone="no"?>
<!DOCTYPE svg PUBLIC "-//W3C//DTD SVG 1.1//EN"
 "http://www.w3.org/Graphics/SVG/1.1/DTD/svg11.dtd">
<!-- Generated by graphviz version 2.38.0 (20140413.2041)
 -->
<!-- Title: G Pages: 1 -->
<svg width="1059pt" height="1830pt"
 viewBox="0.00 0.00 1058.86 1830.00" xmlns="http://www.w3.org/2000/svg" xmlns:xlink="http://www.w3.org/1999/xlink">
<g id="graph0" class="graph" transform="scale(1 1) rotate(0) translate(4 1826)">
<title>G</title>
<polygon fill="white" stroke="none" points="-4,4 -4,-1826 1054.86,-1826 1054.86,4 -4,4"/>
<g id="clust1" class="cluster"><title>cluster_Global</title>
<path fill="none" stroke="gray" d="M333.616,-152C333.616,-152 1030.86,-152 1030.86,-152 1036.86,-152 1042.86,-158 1042.86,-164 1042.86,-164 1042.86,-1802 1042.86,-1802 1042.86,-1808 1036.86,-1814 1030.86,-1814 1030.86,-1814 333.616,-1814 333.616,-1814 327.616,-1814 321.616,-1808 321.616,-1802 321.616,-1802 321.616,-164 321.616,-164 321.616,-158 327.616,-152 333.616,-152"/>
<text text-anchor="middle" x="682.236" y="-1801.2" font-family="Times,serif" font-size="11.00" fill="gray">Global</text>
</g>
<g id="clust2" class="cluster"><title>cluster_\Feeld</title>
<path fill="none" stroke="gray" d="M341.616,-160C341.616,-160 1022.86,-160 1022.86,-160 1028.86,-160 1034.86,-166 1034.86,-172 1034.86,-172 1034.86,-1774 1034.86,-1774 1034.86,-1780 1028.86,-1786 1022.86,-1786 1022.86,-1786 341.616,-1786 341.616,-1786 335.616,-1786 329.616,-1780 329.616,-1774 329.616,-1774 329.616,-172 329.616,-172 329.616,-166 335.616,-160 341.616,-160"/>
<text text-anchor="middle" x="682.236" y="-1773.2" font-family="Times,serif" font-size="11.00" fill="gray">Feeld</text>
</g>
<g id="clust3" class="cluster"><title>cluster_\Feeld\Field</title>
<path fill="none" stroke="gray" d="M637.856,-742C637.856,-742 993.356,-742 993.356,-742 999.356,-742 1005.36,-748 1005.36,-754 1005.36,-754 1005.36,-1422 1005.36,-1422 1005.36,-1428 999.356,-1434 993.356,-1434 993.356,-1434 637.856,-1434 637.856,-1434 631.856,-1434 625.856,-1428 625.856,-1422 625.856,-1422 625.856,-754 625.856,-754 625.856,-748 631.856,-742 637.856,-742"/>
<text text-anchor="middle" x="815.606" y="-1421.2" font-family="Times,serif" font-size="11.00" fill="gray">Field</text>
</g>
<g id="clust4" class="cluster"><title>cluster_\Feeld\Field\CommonProperties</title>
<path fill="none" stroke="gray" d="M645.856,-750C645.856,-750 809.856,-750 809.856,-750 815.856,-750 821.856,-756 821.856,-762 821.856,-762 821.856,-1350 821.856,-1350 821.856,-1356 815.856,-1362 809.856,-1362 809.856,-1362 645.856,-1362 645.856,-1362 639.856,-1362 633.856,-1356 633.856,-1350 633.856,-1350 633.856,-762 633.856,-762 633.856,-756 639.856,-750 645.856,-750"/>
<text text-anchor="middle" x="727.856" y="-1349.2" font-family="Times,serif" font-size="11.00" fill="gray">CommonProperties</text>
</g>
<g id="clust5" class="cluster"><title>cluster_\Feeld\Display</title>
<path fill="none" stroke="gray" d="M669.356,-266C669.356,-266 1014.86,-266 1014.86,-266 1020.86,-266 1026.86,-272 1026.86,-278 1026.86,-278 1026.86,-678 1026.86,-678 1026.86,-684 1020.86,-690 1014.86,-690 1014.86,-690 669.356,-690 669.356,-690 663.356,-690 657.356,-684 657.356,-678 657.356,-678 657.356,-278 657.356,-278 657.356,-272 663.356,-266 669.356,-266"/>
<text text-anchor="middle" x="842.106" y="-677.2" font-family="Times,serif" font-size="11.00" fill="gray">Display</text>
</g>
<g id="clust6" class="cluster"><title>cluster_\Feeld\Display\HTML</title>
<path fill="none" stroke="gray" d="M699.856,-320C699.856,-320 1006.86,-320 1006.86,-320 1012.86,-320 1018.86,-326 1018.86,-332 1018.86,-332 1018.86,-650 1018.86,-650 1018.86,-656 1012.86,-662 1006.86,-662 1006.86,-662 699.856,-662 699.856,-662 693.856,-662 687.856,-656 687.856,-650 687.856,-650 687.856,-332 687.856,-332 687.856,-326 693.856,-320 699.856,-320"/>
<text text-anchor="middle" x="853.356" y="-649.2" font-family="Times,serif" font-size="11.00" fill="gray">HTML</text>
</g>
<g id="clust7" class="cluster"><title>cluster_\Feeld\DataType</title>
<path fill="none" stroke="gray" d="M349.616,-1442C349.616,-1442 996.356,-1442 996.356,-1442 1002.36,-1442 1008.36,-1448 1008.36,-1454 1008.36,-1454 1008.36,-1746 1008.36,-1746 1008.36,-1752 1002.36,-1758 996.356,-1758 996.356,-1758 349.616,-1758 349.616,-1758 343.616,-1758 337.616,-1752 337.616,-1746 337.616,-1746 337.616,-1454 337.616,-1454 337.616,-1448 343.616,-1442 349.616,-1442"/>
<text text-anchor="middle" x="672.986" y="-1745.2" font-family="Times,serif" font-size="11.00" fill="gray">DataType</text>
</g>
<g id="clust8" class="cluster"><title>cluster_\Feeld\DataType\Boundaries</title>
<path fill="none" stroke="gray" d="M357.616,-1496C357.616,-1496 541.616,-1496 541.616,-1496 547.616,-1496 553.616,-1502 553.616,-1508 553.616,-1508 553.616,-1718 553.616,-1718 553.616,-1724 547.616,-1730 541.616,-1730 541.616,-1730 357.616,-1730 357.616,-1730 351.616,-1730 345.616,-1724 345.616,-1718 345.616,-1718 345.616,-1508 345.616,-1508 345.616,-1502 351.616,-1496 357.616,-1496"/>
<text text-anchor="middle" x="449.616" y="-1717.2" font-family="Times,serif" font-size="11.00" fill="gray">Boundaries</text>
</g>
<g id="clust9" class="cluster"><title>cluster_\Feeld\FieldCollection</title>
<path fill="none" stroke="gray" d="M893.356,-168C893.356,-168 1003.36,-168 1003.36,-168 1009.36,-168 1015.36,-174 1015.36,-180 1015.36,-180 1015.36,-246 1015.36,-246 1015.36,-252 1009.36,-258 1003.36,-258 1003.36,-258 893.356,-258 893.356,-258 887.356,-258 881.356,-252 881.356,-246 881.356,-246 881.356,-180 881.356,-180 881.356,-174 887.356,-168 893.356,-168"/>
<text text-anchor="middle" x="948.356" y="-245.2" font-family="Times,serif" font-size="11.00" fill="gray">FieldCollection</text>
</g>
<!-- \\Feeld\\Field\\CommonProperties\\MultipleChoiceInterface -->
<g id="node1" class="node"><title>\\Feeld\\Field\\CommonProperties\\MultipleChoiceInterface</title>
<polygon fill="none" stroke="black" points="813.856,-1334 641.856,-1334 641.856,-1298 813.856,-1298 813.856,-1334"/>
<text text-anchor="middle" x="727.856" y="-1313.2" font-family="Courier,monospace" font-size="11.00">MultipleChoiceInterface</text>
</g>
<!-- \\Feeld\\Field\\CommonProperties\\IdentifierInterface -->
<g id="node2" class="node"><title>\\Feeld\\Field\\CommonProperties\\IdentifierInterface</title>
<polygon fill="none" stroke="black" points="800.356,-1118 655.356,-1118 655.356,-1082 800.356,-1082 800.356,-1118"/>
<text text-anchor="middle" x="727.856" y="-1097.2" font-family="Courier,monospace" font-size="11.00">IdentifierInterface</text>
</g>
<!-- \\Feeld\\Field\\CommonProperties\\OptionsInterface -->
<g id="node3" class="node"><title>\\Feeld\\Field\\CommonProperties\\OptionsInterface</title>
<polygon fill="none" stroke="black" points="790.356,-1280 665.356,-1280 665.356,-1244 790.356,-1244 790.356,-1280"/>
<text text-anchor="middle" x="727.856" y="-1259.2" font-family="Courier,monospace" font-size="11.00">OptionsInterface</text>
</g>
<!-- \\Feeld\\Field\\CommonProperties\\RequiredInterface -->
<g id="node4" class="node"><title>\\Feeld\\Field\\CommonProperties\\RequiredInterface</title>
<polygon fill="none" stroke="black" points="793.356,-1226 662.356,-1226 662.356,-1190 793.356,-1190 793.356,-1226"/>
<text text-anchor="middle" x="727.856" y="-1205.2" font-family="Courier,monospace" font-size="11.00">RequiredInterface</text>
</g>
<!-- \\Wellid\\ValidatableInterface -->
<g id="node45" class="node"><title>\\Wellid\\ValidatableInterface</title>
<ellipse fill="none" stroke="black" cx="449.616" cy="-72" rx="111.581" ry="18"/>
<text text-anchor="middle" x="449.616" y="-68.3" font-family="Times,serif" font-size="14.00" fill="gray">\Wellid\ValidatableInterface</text>
</g>
<!-- \\Feeld\\Field\\CommonProperties\\RequiredInterface&#45;&gt;\\Wellid\\ValidatableInterface -->
<g id="edge40" class="edge"><title>\\Feeld\\Field\\CommonProperties\\RequiredInterface&#45;&gt;\\Wellid\\ValidatableInterface</title>
<path fill="none" stroke="black" d="M662.238,-1203.26C648.283,-1199.15 634.993,-1192.28 625.856,-1181 474.343,-993.884 724.946,-283.162 569.856,-99 565.594,-93.9392 560.602,-89.7105 555.121,-86.1863"/>
<polygon fill="none" stroke="black" points="556.583,-82.9953 546.14,-81.2099 553.191,-89.1182 556.583,-82.9953"/>
</g>
<!-- \\Sanitor\\SanitizableInterface -->
<g id="node46" class="node"><title>\\Sanitor\\SanitizableInterface</title>
<ellipse fill="none" stroke="black" cx="449.616" cy="-126" rx="111.28" ry="18"/>
<text text-anchor="middle" x="449.616" y="-122.3" font-family="Times,serif" font-size="14.00" fill="gray">\Sanitor\SanitizableInterface</text>
</g>
<!-- \\Feeld\\Field\\CommonProperties\\RequiredInterface&#45;&gt;\\Sanitor\\SanitizableInterface -->
<g id="edge41" class="edge"><title>\\Feeld\\Field\\CommonProperties\\RequiredInterface&#45;&gt;\\Sanitor\\SanitizableInterface</title>
<path fill="none" stroke="black" d="M662.334,-1202.27C648.633,-1198.17 635.432,-1191.55 625.856,-1181 483.258,-1023.91 455.604,-306.547 451.311,-154.408"/>
<polygon fill="none" stroke="black" points="454.8,-153.967 451.031,-144.065 447.803,-154.156 454.8,-153.967"/>
</g>
<!-- \\Feeld\\Field\\CommonProperties\\DefaultValueInterface -->
<g id="node5" class="node"><title>\\Feeld\\Field\\CommonProperties\\DefaultValueInterface</title>
<polygon fill="none" stroke="black" points="806.856,-1172 648.856,-1172 648.856,-1136 806.856,-1136 806.856,-1172"/>
<text text-anchor="middle" x="727.856" y="-1151.2" font-family="Courier,monospace" font-size="11.00">DefaultValueInterface</text>
</g>
<!-- \\Feeld\\Field\\CommonProperties\\DefaultValueInterface&#45;&gt;\\Wellid\\ValidatableInterface -->
<g id="edge42" class="edge"><title>\\Feeld\\Field\\CommonProperties\\DefaultValueInterface&#45;&gt;\\Wellid\\ValidatableInterface</title>
<path fill="none" stroke="black" d="M648.489,-1144.08C639.802,-1140 631.92,-1134.47 625.856,-1127 481.643,-949.392 717.464,-273.796 569.856,-99 565.587,-93.945 560.59,-89.7206 555.105,-86.1997"/>
<polygon fill="none" stroke="black" points="556.564,-83.0067 546.119,-81.2275 553.174,-89.1316 556.564,-83.0067"/>
</g>
<!-- \\Feeld\\Field\\CommonProperties\\DefaultValueInterface&#45;&gt;\\Sanitor\\SanitizableInterface -->
<g id="edge43" class="edge"><title>\\Feeld\\Field\\CommonProperties\\DefaultValueInterface&#45;&gt;\\Sanitor\\SanitizableInterface</title>
<path fill="none" stroke="black" d="M648.808,-1143.15C640.182,-1139.21 632.23,-1133.96 625.856,-1127 490.143,-978.8 457.198,-301.74 451.587,-154.37"/>
<polygon fill="none" stroke="black" points="455.082,-154.182 451.216,-144.318 448.087,-154.44 455.082,-154.182"/>
</g>
<!-- \\Feeld\\Field\\CommonProperties\\Field -->
<g id="node6" class="node"><title>\\Feeld\\Field\\CommonProperties\\Field</title>
<polygon fill="none" stroke="black" points="754.856,-1064 700.856,-1064 700.856,-1028 754.856,-1028 754.856,-1064"/>
<text text-anchor="middle" x="727.856" y="-1043.2" font-family="Courier,monospace" font-size="11.00">Field</text>
</g>
<!-- \\Feeld\\Field\\CommonProperties\\Required -->
<g id="node7" class="node"><title>\\Feeld\\Field\\CommonProperties\\Required</title>
<polygon fill="none" stroke="black" points="763.356,-1010 692.356,-1010 692.356,-974 763.356,-974 763.356,-1010"/>
<text text-anchor="middle" x="727.856" y="-989.2" font-family="Courier,monospace" font-size="11.00">Required</text>
</g>
<!-- \\Feeld\\Field\\CommonProperties\\DefaultValue -->
<g id="node8" class="node"><title>\\Feeld\\Field\\CommonProperties\\DefaultValue</title>
<polygon fill="none" stroke="black" points="776.856,-956 678.856,-956 678.856,-920 776.856,-920 776.856,-956"/>
<text text-anchor="middle" x="727.856" y="-935.2" font-family="Courier,monospace" font-size="11.00">DefaultValue</text>
</g>
<!-- \\Feeld\\Field\\CommonProperties\\Options -->
<g id="node9" class="node"><title>\\Feeld\\Field\\CommonProperties\\Options</title>
<polygon fill="none" stroke="black" points="759.856,-902 695.856,-902 695.856,-866 759.856,-866 759.856,-902"/>
<text text-anchor="middle" x="727.856" y="-881.2" font-family="Courier,monospace" font-size="11.00">Options</text>
</g>
<!-- \\Feeld\\Field\\CommonProperties\\Identifier -->
<g id="node10" class="node"><title>\\Feeld\\Field\\CommonProperties\\Identifier</title>
<polygon fill="none" stroke="black" points="769.856,-848 685.856,-848 685.856,-812 769.856,-812 769.856,-848"/>
<text text-anchor="middle" x="727.856" y="-827.2" font-family="Courier,monospace" font-size="11.00">Identifier</text>
</g>
<!-- \\Feeld\\Field\\CommonProperties\\MultipleChoice -->
<g id="node11" class="node"><title>\\Feeld\\Field\\CommonProperties\\MultipleChoice</title>
<polygon fill="none" stroke="black" points="783.356,-794 672.356,-794 672.356,-758 783.356,-758 783.356,-794"/>
<text text-anchor="middle" x="727.856" y="-773.2" font-family="Courier,monospace" font-size="11.00">MultipleChoice</text>
</g>
<!-- \\Feeld\\Field\\CloakedEntry -->
<g id="node12" class="node"><title>\\Feeld\\Field\\CloakedEntry</title>
<polygon fill="none" stroke="black" points="997.356,-1406 899.356,-1406 899.356,-1370 997.356,-1370 997.356,-1406"/>
<text text-anchor="middle" x="948.356" y="-1385.2" font-family="Courier,monospace" font-size="11.00">CloakedEntry</text>
</g>
<!-- \\Feeld\\Field\\Entry -->
<g id="node16" class="node"><title>\\Feeld\\Field\\Entry</title>
<polygon fill="none" stroke="black" points="754.856,-1406 700.856,-1406 700.856,-1370 754.856,-1370 754.856,-1406"/>
<text text-anchor="middle" x="727.856" y="-1385.2" font-family="Courier,monospace" font-size="11.00">Entry</text>
</g>
<!-- \\Feeld\\Field\\CloakedEntry&#45;&gt;\\Feeld\\Field\\Entry -->
<g id="edge1" class="edge"><title>\\Feeld\\Field\\CloakedEntry&#45;&gt;\\Feeld\\Field\\Entry</title>
<path fill="none" stroke="black" d="M899.135,-1388C858.757,-1388 802.004,-1388 765.326,-1388"/>
<polygon fill="none" stroke="black" points="765.086,-1384.5 755.086,-1388 765.086,-1391.5 765.086,-1384.5"/>
</g>
<!-- \\Feeld\\Field\\Select -->
<g id="node13" class="node"><title>\\Feeld\\Field\\Select</title>
<polygon fill="none" stroke="black" points="976.856,-1280 919.856,-1280 919.856,-1244 976.856,-1244 976.856,-1280"/>
<text text-anchor="middle" x="948.356" y="-1259.2" font-family="Courier,monospace" font-size="11.00">Select</text>
</g>
<!-- \\Feeld\\Field\\Select&#45;&gt;\\Feeld\\Field\\CommonProperties\\MultipleChoiceInterface -->
<g id="edge3" class="edge"><title>\\Feeld\\Field\\Select&#45;&gt;\\Feeld\\Field\\CommonProperties\\MultipleChoiceInterface</title>
<path fill="none" stroke="black" stroke-dasharray="1,5" d="M919.683,-1268.84C892.591,-1275.53 849.95,-1286.07 811.842,-1295.49"/>
<polygon fill="none" stroke="black" points="810.617,-1292.19 801.748,-1297.99 812.296,-1298.98 810.617,-1292.19"/>
</g>
<!-- \\Feeld\\Field\\Select&#45;&gt;\\Feeld\\Field\\CommonProperties\\OptionsInterface -->
<g id="edge2" class="edge"><title>\\Feeld\\Field\\Select&#45;&gt;\\Feeld\\Field\\CommonProperties\\OptionsInterface</title>
<path fill="none" stroke="black" stroke-dasharray="1,5" d="M919.683,-1262C889.935,-1262 841.44,-1262 800.783,-1262"/>
<polygon fill="none" stroke="black" points="800.632,-1258.5 790.632,-1262 800.632,-1265.5 800.632,-1258.5"/>
</g>
<!-- \\Feeld\\FieldInterface -->
<g id="node41" class="node"><title>\\Feeld\\FieldInterface</title>
<polygon fill="none" stroke="black" points="783.356,-734 672.356,-734 672.356,-698 783.356,-698 783.356,-734"/>
<text text-anchor="middle" x="727.856" y="-713.2" font-family="Courier,monospace" font-size="11.00">FieldInterface</text>
</g>
<!-- \\Feeld\\Field\\Select&#45;&gt;\\Feeld\\FieldInterface -->
<g id="edge4" class="edge"><title>\\Feeld\\Field\\Select&#45;&gt;\\Feeld\\FieldInterface</title>
<path fill="none" stroke="black" stroke-dasharray="1,5" d="M941.302,-1243.91C928.927,-1206.5 900.307,-1117.82 881.356,-1042 848.819,-911.817 911.197,-846.121 821.856,-746 814.168,-737.385 803.994,-731.23 793.2,-726.836"/>
<polygon fill="none" stroke="black" points="794.196,-723.475 783.601,-723.411 791.843,-730.068 794.196,-723.475"/>
</g>
<!-- \\Feeld\\Field\\Checkbox -->
<g id="node14" class="node"><title>\\Feeld\\Field\\Checkbox</title>
<polygon fill="none" stroke="black" points="983.856,-1033 912.856,-1033 912.856,-997 983.856,-997 983.856,-1033"/>
<text text-anchor="middle" x="948.356" y="-1012.2" font-family="Courier,monospace" font-size="11.00">Checkbox</text>
</g>
<!-- \\Feeld\\Field\\Checkbox&#45;&gt;\\Feeld\\Field\\CommonProperties\\OptionsInterface -->
<g id="edge8" class="edge"><title>\\Feeld\\Field\\Checkbox&#45;&gt;\\Feeld\\Field\\CommonProperties\\OptionsInterface</title>
<path fill="none" stroke="black" stroke-dasharray="1,5" d="M942.176,-1033.21C929.238,-1075.35 891.444,-1180.15 821.856,-1235 815.378,-1240.11 807.969,-1244.25 800.222,-1247.6"/>
<polygon fill="none" stroke="black" points="798.699,-1244.44 790.645,-1251.32 801.234,-1250.96 798.699,-1244.44"/>
</g>
<!-- \\Feeld\\Field\\Checkbox&#45;&gt;\\Feeld\\FieldInterface -->
<g id="edge7" class="edge"><title>\\Feeld\\Field\\Checkbox&#45;&gt;\\Feeld\\FieldInterface</title>
<path fill="none" stroke="black" stroke-dasharray="1,5" d="M944.113,-996.966C934.527,-948.902 901.832,-816.593 821.856,-746 813.578,-738.694 803.5,-733.164 793.07,-728.979"/>
<polygon fill="none" stroke="black" points="794.029,-725.604 783.435,-725.501 791.653,-732.188 794.029,-725.604"/>
</g>
<!-- \\Feeld\\Field\\Constant -->
<g id="node15" class="node"><title>\\Feeld\\Field\\Constant</title>
<polygon fill="none" stroke="black" points="983.856,-786 912.856,-786 912.856,-750 983.856,-750 983.856,-786"/>
<text text-anchor="middle" x="948.356" y="-765.2" font-family="Courier,monospace" font-size="11.00">Constant</text>
</g>
<!-- \\Feeld\\Field\\Constant&#45;&gt;\\Feeld\\FieldInterface -->
<g id="edge13" class="edge"><title>\\Feeld\\Field\\Constant&#45;&gt;\\Feeld\\FieldInterface</title>
<path fill="none" stroke="black" stroke-dasharray="1,5" d="M912.734,-759.76C880.921,-752.189 832.935,-740.769 793.96,-731.494"/>
<polygon fill="none" stroke="black" points="794.284,-727.973 783.746,-729.063 792.664,-734.783 794.284,-727.973"/>
</g>
<!-- \\Feeld\\Field\\Entry&#45;&gt;\\Feeld\\FieldInterface -->
<g id="edge17" class="edge"><title>\\Feeld\\Field\\Entry&#45;&gt;\\Feeld\\FieldInterface</title>
<path fill="none" stroke="black" stroke-dasharray="1,5" d="M754.862,-1390.15C784.165,-1390.79 829.693,-1386.52 851.606,-1357 871.539,-1330.14 871.384,-781.97 851.606,-755 838.032,-736.491 815.659,-726.537 793.641,-721.261"/>
<polygon fill="none" stroke="black" points="794.089,-717.779 783.583,-719.152 792.652,-724.63 794.089,-717.779"/>
</g>
<!-- \\Feeld\\Display\\HTML\\Textarea -->
<g id="node17" class="node"><title>\\Feeld\\Display\\HTML\\Textarea</title>
<polygon fill="none" stroke="black" points="983.856,-472 912.856,-472 912.856,-436 983.856,-436 983.856,-472"/>
<text text-anchor="middle" x="948.356" y="-451.2" font-family="Courier,monospace" font-size="11.00">Textarea</text>
</g>
<!-- \\Feeld\\Display\\HTML\\Element -->
<g id="node19" class="node"><title>\\Feeld\\Display\\HTML\\Element</title>
<polygon fill="none" stroke="black" points="759.856,-526 695.856,-526 695.856,-490 759.856,-490 759.856,-526"/>
<text text-anchor="middle" x="727.856" y="-505.2" font-family="Courier,monospace" font-size="11.00">Element</text>
</g>
<!-- \\Feeld\\Display\\HTML\\Textarea&#45;&gt;\\Feeld\\Display\\HTML\\Element -->
<g id="edge5" class="edge"><title>\\Feeld\\Display\\HTML\\Textarea&#45;&gt;\\Feeld\\Display\\HTML\\Element</title>
<path fill="none" stroke="black" d="M912.771,-462.99C887.589,-469.495 852.644,-478.434 821.856,-486 804.777,-490.197 785.897,-494.69 769.635,-498.515"/>
<polygon fill="none" stroke="black" points="768.825,-495.11 759.888,-500.801 770.423,-501.925 768.825,-495.11"/>
</g>
<!-- \\Feeld\\Display\\DisplayInterface -->
<g id="node25" class="node"><title>\\Feeld\\Display\\DisplayInterface</title>
<polygon fill="none" stroke="black" points="790.356,-312 665.356,-312 665.356,-276 790.356,-276 790.356,-312"/>
<text text-anchor="middle" x="727.856" y="-291.2" font-family="Courier,monospace" font-size="11.00">DisplayInterface</text>
</g>
<!-- \\Feeld\\Display\\HTML\\Textarea&#45;&gt;\\Feeld\\Display\\DisplayInterface -->
<g id="edge6" class="edge"><title>\\Feeld\\Display\\HTML\\Textarea&#45;&gt;\\Feeld\\Display\\DisplayInterface</title>
<path fill="none" stroke="black" stroke-dasharray="1,5" d="M912.584,-444.867C901.672,-440.743 890.184,-434.957 881.356,-427 839.777,-389.526 866.228,-350.12 821.856,-316 815.404,-311.039 808.01,-307.171 800.271,-304.16"/>
<polygon fill="none" stroke="black" points="801.296,-300.812 790.702,-300.896 799.037,-307.437 801.296,-300.812"/>
</g>
<!-- \\Feeld\\Display\\HTML\\Button -->
<g id="node18" class="node"><title>\\Feeld\\Display\\HTML\\Button</title>
<polygon fill="none" stroke="black" points="976.856,-418 919.856,-418 919.856,-382 976.856,-382 976.856,-418"/>
<text text-anchor="middle" x="948.356" y="-397.2" font-family="Courier,monospace" font-size="11.00">Button</text>
</g>
<!-- \\Feeld\\Display\\HTML\\Button&#45;&gt;\\Feeld\\Display\\HTML\\Element -->
<g id="edge9" class="edge"><title>\\Feeld\\Display\\HTML\\Button&#45;&gt;\\Feeld\\Display\\HTML\\Element</title>
<path fill="none" stroke="black" d="M919.826,-408.515C907.499,-413.003 893.124,-419.21 881.356,-427 850.302,-447.557 854.417,-467.926 821.856,-486 806.119,-494.735 787.018,-500.018 770.232,-503.205"/>
<polygon fill="none" stroke="black" points="769.397,-499.797 760.129,-504.931 770.576,-506.697 769.397,-499.797"/>
</g>
<!-- \\Feeld\\Display\\HTML\\Button&#45;&gt;\\Feeld\\Display\\DisplayInterface -->
<g id="edge10" class="edge"><title>\\Feeld\\Display\\HTML\\Button&#45;&gt;\\Feeld\\Display\\DisplayInterface</title>
<path fill="none" stroke="black" stroke-dasharray="1,5" d="M919.563,-391.272C907.321,-386.775 893.087,-380.621 881.356,-373 850.646,-353.05 854.027,-333.496 821.856,-316 815.092,-312.321 807.724,-309.254 800.194,-306.696"/>
<polygon fill="none" stroke="black" points="801.19,-303.34 790.602,-303.722 799.117,-310.026 801.19,-303.34"/>
</g>
<!-- \\Feeld\\Display\\HTML\\Input -->
<g id="node20" class="node"><title>\\Feeld\\Display\\HTML\\Input</title>
<polygon fill="none" stroke="black" points="975.356,-580 921.356,-580 921.356,-544 975.356,-544 975.356,-580"/>
<text text-anchor="middle" x="948.356" y="-559.2" font-family="Courier,monospace" font-size="11.00">Input</text>
</g>
<!-- \\Feeld\\Display\\HTML\\Input&#45;&gt;\\Feeld\\Display\\HTML\\Element -->
<g id="edge11" class="edge"><title>\\Feeld\\Display\\HTML\\Input&#45;&gt;\\Feeld\\Display\\HTML\\Element</title>
<path fill="none" stroke="black" d="M920.947,-555.124C895.573,-548.552 856.138,-538.425 821.856,-530 804.777,-525.803 785.897,-521.31 769.635,-517.485"/>
<polygon fill="none" stroke="black" points="770.423,-514.075 759.888,-515.199 768.825,-520.89 770.423,-514.075"/>
</g>
<!-- \\Feeld\\Display\\HTML\\Input&#45;&gt;\\Feeld\\Display\\DisplayInterface -->
<g id="edge12" class="edge"><title>\\Feeld\\Display\\HTML\\Input&#45;&gt;\\Feeld\\Display\\DisplayInterface</title>
<path fill="none" stroke="black" stroke-dasharray="1,5" d="M921.247,-557.134C907.581,-553.304 891.605,-546.595 881.356,-535 814.555,-459.43 894.343,-386.134 821.856,-316 815.685,-310.03 808.209,-305.574 800.207,-302.265"/>
<polygon fill="none" stroke="black" points="801.214,-298.909 790.619,-298.885 798.886,-305.511 801.214,-298.909"/>
</g>
<!-- \\Feeld\\Display\\HTML\\Option -->
<g id="node21" class="node"><title>\\Feeld\\Display\\HTML\\Option</title>
<polygon fill="none" stroke="black" points="976.856,-634 919.856,-634 919.856,-598 976.856,-598 976.856,-634"/>
<text text-anchor="middle" x="948.356" y="-613.2" font-family="Courier,monospace" font-size="11.00">Option</text>
</g>
<!-- \\Feeld\\Display\\HTML\\Option&#45;&gt;\\Feeld\\Display\\HTML\\Element -->
<g id="edge14" class="edge"><title>\\Feeld\\Display\\HTML\\Option&#45;&gt;\\Feeld\\Display\\HTML\\Element</title>
<path fill="none" stroke="black" d="M919.826,-607.485C907.499,-602.997 893.124,-596.79 881.356,-589 850.302,-568.443 854.417,-548.074 821.856,-530 806.119,-521.265 787.018,-515.982 770.232,-512.795"/>
<polygon fill="none" stroke="black" points="770.576,-509.303 760.129,-511.069 769.397,-516.203 770.576,-509.303"/>
</g>
<!-- \\Feeld\\Display\\HTML\\Select -->
<g id="node22" class="node"><title>\\Feeld\\Display\\HTML\\Select</title>
<polygon fill="none" stroke="black" points="976.856,-526 919.856,-526 919.856,-490 976.856,-490 976.856,-526"/>
<text text-anchor="middle" x="948.356" y="-505.2" font-family="Courier,monospace" font-size="11.00">Select</text>
</g>
<!-- \\Feeld\\Display\\HTML\\Select&#45;&gt;\\Feeld\\Display\\HTML\\Element -->
<g id="edge15" class="edge"><title>\\Feeld\\Display\\HTML\\Select&#45;&gt;\\Feeld\\Display\\HTML\\Element</title>
<path fill="none" stroke="black" d="M919.683,-508C881.942,-508 814.026,-508 770.223,-508"/>
<polygon fill="none" stroke="black" points="770.182,-504.5 760.182,-508 770.181,-511.5 770.182,-504.5"/>
</g>
<!-- \\Feeld\\Display\\HTML\\Select&#45;&gt;\\Feeld\\Display\\DisplayInterface -->
<g id="edge16" class="edge"><title>\\Feeld\\Display\\HTML\\Select&#45;&gt;\\Feeld\\Display\\DisplayInterface</title>
<path fill="none" stroke="black" stroke-dasharray="1,5" d="M919.64,-502.216C906.529,-498.217 891.551,-491.635 881.356,-481 827.409,-424.726 880.024,-367.899 821.856,-316 815.538,-310.363 808.044,-306.1 800.093,-302.885"/>
<polygon fill="none" stroke="black" points="801.187,-299.56 790.592,-299.575 798.884,-306.171 801.187,-299.56"/>
</g>
<!-- \\Feeld\\Display\\HTML\\DisplayHTMLTrait -->
<g id="node23" class="node"><title>\\Feeld\\Display\\HTML\\DisplayHTMLTrait</title>
<polygon fill="none" stroke="black" points="1010.86,-364 885.856,-364 885.856,-328 1010.86,-328 1010.86,-364"/>
<text text-anchor="middle" x="948.356" y="-343.2" font-family="Courier,monospace" font-size="11.00">DisplayHTMLTrait</text>
</g>
<!-- \\Feeld\\Display\\NoDisplay -->
<g id="node24" class="node"><title>\\Feeld\\Display\\NoDisplay</title>
<polygon fill="none" stroke="black" points="986.856,-310 909.856,-310 909.856,-274 986.856,-274 986.856,-310"/>
<text text-anchor="middle" x="948.356" y="-289.2" font-family="Courier,monospace" font-size="11.00">NoDisplay</text>
</g>
<!-- \\Feeld\\Display\\NoDisplay&#45;&gt;\\Feeld\\Display\\DisplayInterface -->
<g id="edge34" class="edge"><title>\\Feeld\\Display\\NoDisplay&#45;&gt;\\Feeld\\Display\\DisplayInterface</title>
<path fill="none" stroke="black" stroke-dasharray="1,5" d="M909.794,-292.344C879.904,-292.617 837.196,-293.008 800.778,-293.342"/>
<polygon fill="none" stroke="black" points="800.656,-289.843 790.689,-293.434 800.72,-296.842 800.656,-289.843"/>
</g>
<!-- \\Feeld\\DataType\\Boundaries\\NumericBoundariesInterface -->
<g id="node26" class="node"><title>\\Feeld\\DataType\\Boundaries\\NumericBoundariesInterface</title>
<polygon fill="none" stroke="black" points="545.616,-1702 353.616,-1702 353.616,-1666 545.616,-1666 545.616,-1702"/>
<text text-anchor="middle" x="449.616" y="-1681.2" font-family="Courier,monospace" font-size="11.00">NumericBoundariesInterface</text>
</g>
<!-- \\Feeld\\DataType\\Boundaries\\LengthBoundariesInterface -->
<g id="node27" class="node"><title>\\Feeld\\DataType\\Boundaries\\LengthBoundariesInterface</title>
<polygon fill="none" stroke="black" points="542.116,-1648 357.116,-1648 357.116,-1612 542.116,-1612 542.116,-1648"/>
<text text-anchor="middle" x="449.616" y="-1627.2" font-family="Courier,monospace" font-size="11.00">LengthBoundariesInterface</text>
</g>
<!-- \\Feeld\\DataType\\Boundaries\\LengthBoundaries -->
<g id="node28" class="node"><title>\\Feeld\\DataType\\Boundaries\\LengthBoundaries</title>
<polygon fill="none" stroke="black" points="512.116,-1594 387.116,-1594 387.116,-1558 512.116,-1558 512.116,-1594"/>
<text text-anchor="middle" x="449.616" y="-1573.2" font-family="Courier,monospace" font-size="11.00">LengthBoundaries</text>
</g>
<!-- \\Feeld\\DataType\\Boundaries\\NumericBoundaries -->
<g id="node29" class="node"><title>\\Feeld\\DataType\\Boundaries\\NumericBoundaries</title>
<polygon fill="none" stroke="black" points="515.116,-1540 384.116,-1540 384.116,-1504 515.116,-1504 515.116,-1540"/>
<text text-anchor="middle" x="449.616" y="-1519.2" font-family="Courier,monospace" font-size="11.00">NumericBoundaries</text>
</g>
<!-- \\Feeld\\DataType\\Float -->
<g id="node30" class="node"><title>\\Feeld\\DataType\\Float</title>
<polygon fill="none" stroke="black" points="754.856,-1702 700.856,-1702 700.856,-1666 754.856,-1666 754.856,-1702"/>
<text text-anchor="middle" x="727.856" y="-1681.2" font-family="Courier,monospace" font-size="11.00">Float</text>
</g>
<!-- \\Feeld\\DataType\\Float&#45;&gt;\\Feeld\\DataType\\Boundaries\\NumericBoundariesInterface -->
<g id="edge20" class="edge"><title>\\Feeld\\DataType\\Float&#45;&gt;\\Feeld\\DataType\\Boundaries\\NumericBoundariesInterface</title>
<path fill="none" stroke="black" stroke-dasharray="1,5" d="M700.369,-1684C667.131,-1684 608.13,-1684 555.819,-1684"/>
<polygon fill="none" stroke="black" points="555.797,-1680.5 545.797,-1684 555.797,-1687.5 555.797,-1680.5"/>
</g>
<!-- \\Feeld\\DataType\\Float&#45;&gt;\\Feeld\\DataType\\Boundaries\\LengthBoundariesInterface -->
<g id="edge19" class="edge"><title>\\Feeld\\DataType\\Float&#45;&gt;\\Feeld\\DataType\\Boundaries\\LengthBoundariesInterface</title>
<path fill="none" stroke="black" stroke-dasharray="1,5" d="M700.369,-1678.82C666.362,-1672.17 605.389,-1660.26 552.203,-1649.86"/>
<polygon fill="none" stroke="black" points="552.857,-1646.42 542.371,-1647.94 551.514,-1653.29 552.857,-1646.42"/>
</g>
<!-- \\Feeld\\DataType\\DataTypeInterface -->
<g id="node38" class="node"><title>\\Feeld\\DataType\\DataTypeInterface</title>
<polygon fill="none" stroke="black" points="515.116,-1486 384.116,-1486 384.116,-1450 515.116,-1450 515.116,-1486"/>
<text text-anchor="middle" x="449.616" y="-1465.2" font-family="Courier,monospace" font-size="11.00">DataTypeInterface</text>
</g>
<!-- \\Feeld\\DataType\\Float&#45;&gt;\\Feeld\\DataType\\DataTypeInterface -->
<g id="edge18" class="edge"><title>\\Feeld\\DataType\\Float&#45;&gt;\\Feeld\\DataType\\DataTypeInterface</title>
<path fill="none" stroke="black" stroke-dasharray="1,5" d="M700.808,-1683.62C678.246,-1681.92 646.129,-1675.98 625.856,-1657 569.32,-1604.08 628.02,-1543.13 569.856,-1492 557.444,-1481.09 541.478,-1474.61 525.29,-1470.86"/>
<polygon fill="none" stroke="black" points="525.701,-1467.38 515.213,-1468.87 524.345,-1474.25 525.701,-1467.38"/>
</g>
<!-- \\Feeld\\DataType\\Email -->
<g id="node31" class="node"><title>\\Feeld\\DataType\\Email</title>
<polygon fill="none" stroke="black" points="975.356,-1702 921.356,-1702 921.356,-1666 975.356,-1666 975.356,-1702"/>
<text text-anchor="middle" x="948.356" y="-1681.2" font-family="Courier,monospace" font-size="11.00">Email</text>
</g>
<!-- \\Feeld\\DataType\\String -->
<g id="node36" class="node"><title>\\Feeld\\DataType\\String</title>
<polygon fill="none" stroke="black" points="756.356,-1594 699.356,-1594 699.356,-1558 756.356,-1558 756.356,-1594"/>
<text text-anchor="middle" x="727.856" y="-1573.2" font-family="Courier,monospace" font-size="11.00">String</text>
</g>
<!-- \\Feeld\\DataType\\Email&#45;&gt;\\Feeld\\DataType\\String -->
<g id="edge21" class="edge"><title>\\Feeld\\DataType\\Email&#45;&gt;\\Feeld\\DataType\\String</title>
<path fill="none" stroke="black" d="M921.268,-1675.71C908.7,-1671.14 893.712,-1664.79 881.356,-1657 851.149,-1637.95 853.027,-1620.43 821.856,-1603 804.804,-1593.47 784.072,-1587.03 766.514,-1582.83"/>
<polygon fill="none" stroke="black" points="767.117,-1579.38 756.594,-1580.62 765.591,-1586.21 767.117,-1579.38"/>
</g>
<!-- \\Feeld\\DataType\\File -->
<g id="node32" class="node"><title>\\Feeld\\DataType\\File</title>
<polygon fill="none" stroke="black" points="975.356,-1648 921.356,-1648 921.356,-1612 975.356,-1612 975.356,-1648"/>
<text text-anchor="middle" x="948.356" y="-1627.2" font-family="Courier,monospace" font-size="11.00">File</text>
</g>
<!-- \\Feeld\\DataType\\File&#45;&gt;\\Feeld\\DataType\\String -->
<g id="edge22" class="edge"><title>\\Feeld\\DataType\\File&#45;&gt;\\Feeld\\DataType\\String</title>
<path fill="none" stroke="black" d="M921,-1623.49C882.459,-1613.96 810.53,-1596.18 766.449,-1585.29"/>
<polygon fill="none" stroke="black" points="767.231,-1581.88 756.683,-1582.88 765.551,-1588.67 767.231,-1581.88"/>
</g>
<!-- \\Feeld\\DataType\\Country -->
<g id="node33" class="node"><title>\\Feeld\\DataType\\Country</title>
<polygon fill="none" stroke="black" points="980.356,-1594 916.356,-1594 916.356,-1558 980.356,-1558 980.356,-1594"/>
<text text-anchor="middle" x="948.356" y="-1573.2" font-family="Courier,monospace" font-size="11.00">Country</text>
</g>
<!-- \\Feeld\\DataType\\Country&#45;&gt;\\Feeld\\DataType\\String -->
<g id="edge23" class="edge"><title>\\Feeld\\DataType\\Country&#45;&gt;\\Feeld\\DataType\\String</title>
<path fill="none" stroke="black" d="M916.05,-1576C876.671,-1576 809.099,-1576 766.816,-1576"/>
<polygon fill="none" stroke="black" points="766.643,-1572.5 756.643,-1576 766.643,-1579.5 766.643,-1572.5"/>
</g>
<!-- \\Feeld\\DataType\\Integer -->
<g id="node34" class="node"><title>\\Feeld\\DataType\\Integer</title>
<polygon fill="none" stroke="black" points="759.856,-1648 695.856,-1648 695.856,-1612 759.856,-1612 759.856,-1648"/>
<text text-anchor="middle" x="727.856" y="-1627.2" font-family="Courier,monospace" font-size="11.00">Integer</text>
</g>
<!-- \\Feeld\\DataType\\Integer&#45;&gt;\\Feeld\\DataType\\Boundaries\\NumericBoundariesInterface -->
<g id="edge26" class="edge"><title>\\Feeld\\DataType\\Integer&#45;&gt;\\Feeld\\DataType\\Boundaries\\NumericBoundariesInterface</title>
<path fill="none" stroke="black" stroke-dasharray="1,5" d="M695.705,-1636.09C661.113,-1642.85 603.456,-1654.12 552.754,-1664.03"/>
<polygon fill="none" stroke="black" points="551.858,-1660.64 542.715,-1666 553.201,-1667.51 551.858,-1660.64"/>
</g>
<!-- \\Feeld\\DataType\\Integer&#45;&gt;\\Feeld\\DataType\\Boundaries\\LengthBoundariesInterface -->
<g id="edge25" class="edge"><title>\\Feeld\\DataType\\Integer&#45;&gt;\\Feeld\\DataType\\Boundaries\\LengthBoundariesInterface</title>
<path fill="none" stroke="black" stroke-dasharray="1,5" d="M695.705,-1630C661.047,-1630 603.236,-1630 552.463,-1630"/>
<polygon fill="none" stroke="black" points="552.411,-1626.5 542.411,-1630 552.411,-1633.5 552.411,-1626.5"/>
</g>
<!-- \\Feeld\\DataType\\Integer&#45;&gt;\\Feeld\\DataType\\DataTypeInterface -->
<g id="edge24" class="edge"><title>\\Feeld\\DataType\\Integer&#45;&gt;\\Feeld\\DataType\\DataTypeInterface</title>
<path fill="none" stroke="black" stroke-dasharray="1,5" d="M695.584,-1628.26C673.934,-1625.6 645.576,-1619.03 625.856,-1603 582.973,-1568.15 613.808,-1525.49 569.856,-1492 556.989,-1482.2 541.147,-1476.11 525.261,-1472.4"/>
<polygon fill="none" stroke="black" points="525.889,-1468.95 515.39,-1470.38 524.486,-1475.81 525.889,-1468.95"/>
</g>
<!-- \\Feeld\\DataType\\Date -->
<g id="node35" class="node"><title>\\Feeld\\DataType\\Date</title>
<polygon fill="none" stroke="black" points="754.856,-1486 700.856,-1486 700.856,-1450 754.856,-1450 754.856,-1486"/>
<text text-anchor="middle" x="727.856" y="-1465.2" font-family="Courier,monospace" font-size="11.00">Date</text>
</g>
<!-- \\Feeld\\DataType\\Date&#45;&gt;\\Feeld\\DataType\\DataTypeInterface -->
<g id="edge27" class="edge"><title>\\Feeld\\DataType\\Date&#45;&gt;\\Feeld\\DataType\\DataTypeInterface</title>
<path fill="none" stroke="black" stroke-dasharray="1,5" d="M700.369,-1468C660.495,-1468 583.548,-1468 525.55,-1468"/>
<polygon fill="none" stroke="black" points="525.32,-1464.5 515.32,-1468 525.32,-1471.5 525.32,-1464.5"/>
</g>
<!-- \\Feeld\\DataType\\String&#45;&gt;\\Feeld\\DataType\\Boundaries\\LengthBoundariesInterface -->
<g id="edge29" class="edge"><title>\\Feeld\\DataType\\String&#45;&gt;\\Feeld\\DataType\\Boundaries\\LengthBoundariesInterface</title>
<path fill="none" stroke="black" stroke-dasharray="1,5" d="M699.104,-1581.42C664.914,-1588.11 604.905,-1599.84 552.424,-1610.1"/>
<polygon fill="none" stroke="black" points="551.523,-1606.71 542.38,-1612.06 552.866,-1613.58 551.523,-1606.71"/>
</g>
<!-- \\Feeld\\DataType\\String&#45;&gt;\\Feeld\\DataType\\DataTypeInterface -->
<g id="edge28" class="edge"><title>\\Feeld\\DataType\\String&#45;&gt;\\Feeld\\DataType\\DataTypeInterface</title>
<path fill="none" stroke="black" stroke-dasharray="1,5" d="M699.085,-1557.89C668.581,-1538.8 617.567,-1509.14 569.856,-1492 555.673,-1486.9 540.131,-1482.78 525.09,-1479.49"/>
<polygon fill="none" stroke="black" points="525.802,-1476.07 515.298,-1477.45 524.371,-1482.92 525.802,-1476.07"/>
</g>
<!-- \\Feeld\\DataType\\URL -->
<g id="node37" class="node"><title>\\Feeld\\DataType\\URL</title>
<polygon fill="none" stroke="black" points="975.356,-1540 921.356,-1540 921.356,-1504 975.356,-1504 975.356,-1540"/>
<text text-anchor="middle" x="948.356" y="-1519.2" font-family="Courier,monospace" font-size="11.00">URL</text>
</g>
<!-- \\Feeld\\DataType\\URL&#45;&gt;\\Feeld\\DataType\\String -->
<g id="edge30" class="edge"><title>\\Feeld\\DataType\\URL&#45;&gt;\\Feeld\\DataType\\String</title>
<path fill="none" stroke="black" d="M921,-1528.51C882.459,-1538.04 810.53,-1555.82 766.449,-1566.71"/>
<polygon fill="none" stroke="black" points="765.551,-1563.33 756.683,-1569.12 767.231,-1570.12 765.551,-1563.33"/>
</g>
<!-- \\Wellid\\ValidatorHolderInterface -->
<g id="node47" class="node"><title>\\Wellid\\ValidatorHolderInterface</title>
<ellipse fill="none" stroke="black" cx="128.689" cy="-1468" rx="128.877" ry="18"/>
<text text-anchor="middle" x="128.689" y="-1464.3" font-family="Times,serif" font-size="14.00" fill="gray">\Wellid\ValidatorHolderInterface</text>
</g>
<!-- \\Feeld\\DataType\\DataTypeInterface&#45;&gt;\\Wellid\\ValidatorHolderInterface -->
<g id="edge44" class="edge"><title>\\Feeld\\DataType\\DataTypeInterface&#45;&gt;\\Wellid\\ValidatorHolderInterface</title>
<path fill="none" stroke="black" d="M384.077,-1468C350.518,-1468 308.14,-1468 267.647,-1468"/>
<polygon fill="none" stroke="black" points="267.399,-1464.5 257.399,-1468 267.399,-1471.5 267.399,-1464.5"/>
</g>
<!-- \\Feeld\\DataType\\DataTypeTrait -->
<g id="node39" class="node"><title>\\Feeld\\DataType\\DataTypeTrait</title>
<polygon fill="none" stroke="black" points="1000.36,-1486 896.356,-1486 896.356,-1450 1000.36,-1450 1000.36,-1486"/>
<text text-anchor="middle" x="948.356" y="-1465.2" font-family="Courier,monospace" font-size="11.00">DataTypeTrait</text>
</g>
<!-- \\Feeld\\FieldCollection\\FieldCollection -->
<g id="node40" class="node"><title>\\Feeld\\FieldCollection\\FieldCollection</title>
<polygon fill="none" stroke="black" points="1007.36,-212 889.356,-212 889.356,-176 1007.36,-176 1007.36,-212"/>
<text text-anchor="middle" x="948.356" y="-191.2" font-family="Courier,monospace" font-size="11.00">FieldCollection</text>
</g>
<!-- \\Feeld\\FieldCollection\\FieldCollection&#45;&gt;\\Feeld\\FieldCollection\\FieldCollection -->
<g id="edge31" class="edge"><title>\\Feeld\\FieldCollection\\FieldCollection&#45;&gt;\\Feeld\\FieldCollection\\FieldCollection</title>
<path fill="none" stroke="black" stroke-dasharray="1,5" d="M988.156,-212.153C994.279,-221.539 981.012,-230 948.356,-230 928.456,-230 915.756,-226.858 910.256,-222.28"/>
<polygon fill="none" stroke="black" points="913.664,-221.435 908.556,-212.153 906.76,-222.594 913.664,-221.435"/>
</g>
<!-- \\Iterator -->
<g id="node42" class="node"><title>\\Iterator</title>
<ellipse fill="none" stroke="black" cx="727.856" cy="-72" rx="38.9931" ry="18"/>
<text text-anchor="middle" x="727.856" y="-68.3" font-family="Times,serif" font-size="14.00" fill="gray">\Iterator</text>
</g>
<!-- \\Feeld\\FieldCollection\\FieldCollection&#45;&gt;\\Iterator -->
<g id="edge32" class="edge"><title>\\Feeld\\FieldCollection\\FieldCollection&#45;&gt;\\Iterator</title>
<path fill="none" stroke="black" stroke-dasharray="1,5" d="M928.025,-175.721C904.602,-154.484 863.129,-119.719 821.856,-99 806.942,-91.5131 789.612,-85.773 773.982,-81.5506"/>
<polygon fill="none" stroke="black" points="774.555,-78.0843 763.999,-78.992 772.817,-84.8651 774.555,-78.0843"/>
</g>
<!-- \\Countable -->
<g id="node43" class="node"><title>\\Countable</title>
<ellipse fill="none" stroke="black" cx="727.856" cy="-126" rx="49.2915" ry="18"/>
<text text-anchor="middle" x="727.856" y="-122.3" font-family="Times,serif" font-size="14.00" fill="gray">\Countable</text>
</g>
<!-- \\Feeld\\FieldCollection\\FieldCollection&#45;&gt;\\Countable -->
<g id="edge33" class="edge"><title>\\Feeld\\FieldCollection\\FieldCollection&#45;&gt;\\Countable</title>
<path fill="none" stroke="black" stroke-dasharray="1,5" d="M889.375,-175.956C853.971,-164.938 809.277,-151.028 776.046,-140.686"/>
<polygon fill="none" stroke="black" points="776.712,-137.228 766.124,-137.598 774.632,-143.912 776.712,-137.228"/>
</g>
<!-- \\Feeld\\FieldInterface&#45;&gt;\\Feeld\\Field\\CommonProperties\\IdentifierInterface -->
<g id="edge38" class="edge"><title>\\Feeld\\FieldInterface&#45;&gt;\\Feeld\\Field\\CommonProperties\\IdentifierInterface</title>
<path fill="none" stroke="black" d="M783.583,-719.152C808.6,-723.689 835.954,-733.656 851.606,-755 871.909,-782.687 872.069,-1036.43 851.606,-1064 841.406,-1077.74 826.254,-1086.49 810.019,-1091.99"/>
<polygon fill="none" stroke="black" points="808.946,-1088.66 800.365,-1094.87 810.948,-1095.37 808.946,-1088.66"/>
</g>
<!-- \\Feeld\\FieldInterface&#45;&gt;\\Feeld\\Field\\CommonProperties\\RequiredInterface -->
<g id="edge39" class="edge"><title>\\Feeld\\FieldInterface&#45;&gt;\\Feeld\\Field\\CommonProperties\\RequiredInterface</title>
<path fill="none" stroke="black" d="M783.583,-719.152C808.6,-723.689 835.954,-733.656 851.606,-755 879.006,-792.363 879.221,-1134.8 851.606,-1172 840.023,-1187.61 822.053,-1196.77 803.365,-1202.06"/>
<polygon fill="none" stroke="black" points="802.423,-1198.69 793.557,-1204.49 804.105,-1205.48 802.423,-1198.69"/>
</g>
<!-- \\Feeld\\FieldInterface&#45;&gt;\\Feeld\\Field\\CommonProperties\\DefaultValueInterface -->
<g id="edge37" class="edge"><title>\\Feeld\\FieldInterface&#45;&gt;\\Feeld\\Field\\CommonProperties\\DefaultValueInterface</title>
<path fill="none" stroke="black" d="M783.583,-719.152C808.6,-723.689 835.954,-733.656 851.606,-755 875.457,-787.525 875.645,-1085.61 851.606,-1118 842.829,-1129.82 830.387,-1137.95 816.743,-1143.49"/>
<polygon fill="none" stroke="black" points="815.37,-1140.27 807.136,-1146.93 817.73,-1146.86 815.37,-1140.27"/>
</g>
<!-- \\Wellid\\SanitorBridgeInterface -->
<g id="node44" class="node"><title>\\Wellid\\SanitorBridgeInterface</title>
<ellipse fill="none" stroke="black" cx="449.616" cy="-18" rx="120.479" ry="18"/>
<text text-anchor="middle" x="449.616" y="-14.3" font-family="Times,serif" font-size="14.00" fill="gray">\Wellid\SanitorBridgeInterface</text>
</g>
<!-- \\Feeld\\FieldInterface&#45;&gt;\\Wellid\\SanitorBridgeInterface -->
<g id="edge35" class="edge"><title>\\Feeld\\FieldInterface&#45;&gt;\\Wellid\\SanitorBridgeInterface</title>
<path fill="none" stroke="black" d="M672.102,-700.796C654.564,-693.191 636.857,-682.062 625.856,-666 547.559,-551.683 661.119,-149.259 569.856,-45 566.011,-40.608 561.617,-36.848 556.835,-33.6349"/>
<polygon fill="none" stroke="black" points="558.251,-30.4103 547.844,-28.4237 554.741,-36.4666 558.251,-30.4103"/>
</g>
<!-- \\Feeld\\FieldInterface&#45;&gt;\\Wellid\\ValidatableInterface -->
<g id="edge36" class="edge"><title>\\Feeld\\FieldInterface&#45;&gt;\\Wellid\\ValidatableInterface</title>
<path fill="none" stroke="black" d="M672.179,-700.744C654.647,-693.134 636.925,-682.015 625.856,-666 553.866,-561.845 653.654,-193.914 569.856,-99 565.431,-93.9879 560.289,-89.8005 554.675,-86.3107"/>
<polygon fill="none" stroke="black" points="555.963,-83.03 545.497,-81.3826 552.652,-89.1971 555.963,-83.03"/>
</g>
</g>
</svg>
