<?xml version="1.0" encoding="UTF-8" standalone="no"?>
<!DOCTYPE svg PUBLIC "-//W3C//DTD SVG 1.1//EN"
 "http://www.w3.org/Graphics/SVG/1.1/DTD/svg11.dtd">
<!-- Generated by graphviz version 2.38.0 (20140413.2041)
 -->
<!-- Title: G Pages: 1 -->
<svg width="942pt" height="1580pt"
 viewBox="0.00 0.00 941.58 1580.00" xmlns="http://www.w3.org/2000/svg" xmlns:xlink="http://www.w3.org/1999/xlink">
<g id="graph0" class="graph" transform="scale(1 1) rotate(0) translate(4 1576)">
<title>G</title>
<polygon fill="white" stroke="none" points="-4,4 -4,-1576 937.58,-1576 937.58,4 -4,4"/>
<g id="clust1" class="cluster"><title>cluster_Global</title>
<path fill="none" stroke="gray" d="M267.58,-8C267.58,-8 913.58,-8 913.58,-8 919.58,-8 925.58,-14 925.58,-20 925.58,-20 925.58,-1552 925.58,-1552 925.58,-1558 919.58,-1564 913.58,-1564 913.58,-1564 267.58,-1564 267.58,-1564 261.58,-1564 255.58,-1558 255.58,-1552 255.58,-1552 255.58,-20 255.58,-20 255.58,-14 261.58,-8 267.58,-8"/>
<text text-anchor="middle" x="590.58" y="-1551.2" font-family="Times,serif" font-size="11.00" fill="gray">Global</text>
</g>
<g id="clust2" class="cluster"><title>cluster_\Feeld</title>
<path fill="none" stroke="gray" d="M275.58,-16C275.58,-16 905.58,-16 905.58,-16 911.58,-16 917.58,-22 917.58,-28 917.58,-28 917.58,-1524 917.58,-1524 917.58,-1530 911.58,-1536 905.58,-1536 905.58,-1536 275.58,-1536 275.58,-1536 269.58,-1536 263.58,-1530 263.58,-1524 263.58,-1524 263.58,-28 263.58,-28 263.58,-22 269.58,-16 275.58,-16"/>
<text text-anchor="middle" x="590.58" y="-1523.2" font-family="Times,serif" font-size="11.00" fill="gray">Feeld</text>
</g>
<g id="clust3" class="cluster"><title>cluster_\Feeld\Field</title>
<path fill="none" stroke="gray" d="M283.58,-446C283.58,-446 897.58,-446 897.58,-446 903.58,-446 909.58,-452 909.58,-458 909.58,-458 909.58,-1496 909.58,-1496 909.58,-1502 903.58,-1508 897.58,-1508 897.58,-1508 283.58,-1508 283.58,-1508 277.58,-1508 271.58,-1502 271.58,-1496 271.58,-1496 271.58,-458 271.58,-458 271.58,-452 277.58,-446 283.58,-446"/>
<text text-anchor="middle" x="590.58" y="-1495.2" font-family="Times,serif" font-size="11.00" fill="gray">Field</text>
</g>
<g id="clust4" class="cluster"><title>cluster_\Feeld\Field\DataType</title>
<path fill="none" stroke="gray" d="M291.58,-498C291.58,-498 880.58,-498 880.58,-498 886.58,-498 892.58,-504 892.58,-510 892.58,-510 892.58,-802 892.58,-802 892.58,-808 886.58,-814 880.58,-814 880.58,-814 291.58,-814 291.58,-814 285.58,-814 279.58,-808 279.58,-802 279.58,-802 279.58,-510 279.58,-510 279.58,-504 285.58,-498 291.58,-498"/>
<text text-anchor="middle" x="586.08" y="-801.2" font-family="Times,serif" font-size="11.00" fill="gray">DataType</text>
</g>
<g id="clust5" class="cluster"><title>cluster_\Feeld\Field\DataType\Boundaries</title>
<path fill="none" stroke="gray" d="M299.58,-552C299.58,-552 483.58,-552 483.58,-552 489.58,-552 495.58,-558 495.58,-564 495.58,-564 495.58,-774 495.58,-774 495.58,-780 489.58,-786 483.58,-786 483.58,-786 299.58,-786 299.58,-786 293.58,-786 287.58,-780 287.58,-774 287.58,-774 287.58,-564 287.58,-564 287.58,-558 293.58,-552 299.58,-552"/>
<text text-anchor="middle" x="391.58" y="-773.2" font-family="Times,serif" font-size="11.00" fill="gray">Boundaries</text>
</g>
<g id="clust6" class="cluster"><title>cluster_\Feeld\Field\CommonProperties</title>
<path fill="none" stroke="gray" d="M563.58,-868C563.58,-868 727.58,-868 727.58,-868 733.58,-868 739.58,-874 739.58,-880 739.58,-880 739.58,-1468 739.58,-1468 739.58,-1474 733.58,-1480 727.58,-1480 727.58,-1480 563.58,-1480 563.58,-1480 557.58,-1480 551.58,-1474 551.58,-1468 551.58,-1468 551.58,-880 551.58,-880 551.58,-874 557.58,-868 563.58,-868"/>
<text text-anchor="middle" x="645.58" y="-1467.2" font-family="Times,serif" font-size="11.00" fill="gray">CommonProperties</text>
</g>
<g id="clust7" class="cluster"><title>cluster_\Feeld\Display</title>
<path fill="none" stroke="gray" d="M609.58,-24C609.58,-24 894.08,-24 894.08,-24 900.08,-24 906.08,-30 906.08,-36 906.08,-36 906.08,-382 906.08,-382 906.08,-388 900.08,-394 894.08,-394 894.08,-394 609.58,-394 609.58,-394 603.58,-394 597.58,-388 597.58,-382 597.58,-382 597.58,-36 597.58,-36 597.58,-30 603.58,-24 609.58,-24"/>
<text text-anchor="middle" x="751.83" y="-381.2" font-family="Times,serif" font-size="11.00" fill="gray">Display</text>
</g>
<g id="clust8" class="cluster"><title>cluster_\Feeld\Display\HTML</title>
<path fill="none" stroke="gray" d="M617.58,-78C617.58,-78 884.08,-78 884.08,-78 890.08,-78 896.08,-84 896.08,-90 896.08,-90 896.08,-354 896.08,-354 896.08,-360 890.08,-366 884.08,-366 884.08,-366 617.58,-366 617.58,-366 611.58,-366 605.58,-360 605.58,-354 605.58,-354 605.58,-90 605.58,-90 605.58,-84 611.58,-78 617.58,-78"/>
<text text-anchor="middle" x="750.83" y="-353.2" font-family="Times,serif" font-size="11.00" fill="gray">HTML</text>
</g>
<!-- \\Feeld\\Field\\DataType\\Boundaries\\LengthBoundariesInterface -->
<g id="node1" class="node"><title>\\Feeld\\Field\\DataType\\Boundaries\\LengthBoundariesInterface</title>
<polygon fill="none" stroke="black" points="484.08,-704 299.08,-704 299.08,-668 484.08,-668 484.08,-704"/>
<text text-anchor="middle" x="391.58" y="-683.2" font-family="Courier,monospace" font-size="11.00">LengthBoundariesInterface</text>
</g>
<!-- \\Wellid\\ValidatableInterface -->
<g id="node38" class="node"><title>\\Wellid\\ValidatableInterface</title>
<ellipse fill="none" stroke="black" cx="111.79" cy="-713" rx="111.581" ry="18"/>
<text text-anchor="middle" x="111.79" y="-709.3" font-family="Times,serif" font-size="14.00" fill="gray">\Wellid\ValidatableInterface</text>
</g>
<!-- \\Feeld\\Field\\DataType\\Boundaries\\LengthBoundariesInterface&#45;&gt;\\Wellid\\ValidatableInterface -->
<g id="edge27" class="edge"><title>\\Feeld\\Field\\DataType\\Boundaries\\LengthBoundariesInterface&#45;&gt;\\Wellid\\ValidatableInterface</title>
<path fill="none" stroke="black" d="M298.851,-694.916C273.067,-697.422 244.822,-700.167 218.302,-702.745"/>
<polygon fill="none" stroke="black" points="217.846,-699.272 208.232,-703.723 218.523,-706.24 217.846,-699.272"/>
</g>
<!-- \\Feeld\\Field\\DataType\\Boundaries\\NumericBoundariesInterface -->
<g id="node2" class="node"><title>\\Feeld\\Field\\DataType\\Boundaries\\NumericBoundariesInterface</title>
<polygon fill="none" stroke="black" points="487.58,-758 295.58,-758 295.58,-722 487.58,-722 487.58,-758"/>
<text text-anchor="middle" x="391.58" y="-737.2" font-family="Courier,monospace" font-size="11.00">NumericBoundariesInterface</text>
</g>
<!-- \\Feeld\\Field\\DataType\\Boundaries\\NumericBoundariesInterface&#45;&gt;\\Wellid\\ValidatableInterface -->
<g id="edge35" class="edge"><title>\\Feeld\\Field\\DataType\\Boundaries\\NumericBoundariesInterface&#45;&gt;\\Wellid\\ValidatableInterface</title>
<path fill="none" stroke="black" d="M295.369,-730.746C270.411,-728.32 243.359,-725.691 217.915,-723.218"/>
<polygon fill="none" stroke="black" points="218.168,-719.726 207.877,-722.242 217.491,-726.693 218.168,-719.726"/>
</g>
<!-- \\Feeld\\Field\\DataType\\Boundaries\\NumericBoundaries -->
<g id="node3" class="node"><title>\\Feeld\\Field\\DataType\\Boundaries\\NumericBoundaries</title>
<polygon fill="none" stroke="black" points="457.08,-650 326.08,-650 326.08,-614 457.08,-614 457.08,-650"/>
<text text-anchor="middle" x="391.58" y="-629.2" font-family="Courier,monospace" font-size="11.00">NumericBoundaries</text>
</g>
<!-- \\Feeld\\Field\\DataType\\Boundaries\\LengthBoundaries -->
<g id="node4" class="node"><title>\\Feeld\\Field\\DataType\\Boundaries\\LengthBoundaries</title>
<polygon fill="none" stroke="black" points="454.08,-596 329.08,-596 329.08,-560 454.08,-560 454.08,-596"/>
<text text-anchor="middle" x="391.58" y="-575.2" font-family="Courier,monospace" font-size="11.00">LengthBoundaries</text>
</g>
<!-- \\Feeld\\Field\\DataType\\String -->
<g id="node5" class="node"><title>\\Feeld\\Field\\DataType\\String</title>
<polygon fill="none" stroke="black" points="674.08,-617 617.08,-617 617.08,-581 674.08,-581 674.08,-617"/>
<text text-anchor="middle" x="645.58" y="-596.2" font-family="Courier,monospace" font-size="11.00">String</text>
</g>
<!-- \\Feeld\\Field\\DataType\\String&#45;&gt;\\Feeld\\Field\\DataType\\Boundaries\\LengthBoundariesInterface -->
<g id="edge3" class="edge"><title>\\Feeld\\Field\\DataType\\String&#45;&gt;\\Feeld\\Field\\DataType\\Boundaries\\LengthBoundariesInterface</title>
<path fill="none" stroke="black" stroke-dasharray="1,5" d="M616.961,-611.348C587.34,-624.299 538.734,-644.719 495.58,-659 489.213,-661.107 482.581,-663.159 475.889,-665.13"/>
<polygon fill="none" stroke="black" points="474.706,-661.828 466.063,-667.955 476.641,-668.555 474.706,-661.828"/>
</g>
<!-- \\Feeld\\Field\\DataType\\DataTypeInterface -->
<g id="node13" class="node"><title>\\Feeld\\Field\\DataType\\DataTypeInterface</title>
<polygon fill="none" stroke="black" points="457.08,-542 326.08,-542 326.08,-506 457.08,-506 457.08,-542"/>
<text text-anchor="middle" x="391.58" y="-521.2" font-family="Courier,monospace" font-size="11.00">DataTypeInterface</text>
</g>
<!-- \\Feeld\\Field\\DataType\\String&#45;&gt;\\Feeld\\Field\\DataType\\DataTypeInterface -->
<g id="edge2" class="edge"><title>\\Feeld\\Field\\DataType\\String&#45;&gt;\\Feeld\\Field\\DataType\\DataTypeInterface</title>
<path fill="none" stroke="black" stroke-dasharray="1,5" d="M616.836,-588.564C587.111,-577.604 538.419,-560.289 495.58,-548 486.411,-545.37 476.721,-542.819 467.1,-540.423"/>
<polygon fill="none" stroke="black" points="467.668,-536.959 457.123,-537.986 466.007,-543.759 467.668,-536.959"/>
</g>
<!-- \\Feeld\\Field\\DataType\\Date -->
<g id="node6" class="node"><title>\\Feeld\\Field\\DataType\\Date</title>
<polygon fill="none" stroke="black" points="672.58,-542 618.58,-542 618.58,-506 672.58,-506 672.58,-542"/>
<text text-anchor="middle" x="645.58" y="-521.2" font-family="Courier,monospace" font-size="11.00">Date</text>
</g>
<!-- \\Feeld\\Field\\DataType\\Date&#45;&gt;\\Feeld\\Field\\DataType\\DataTypeInterface -->
<g id="edge8" class="edge"><title>\\Feeld\\Field\\DataType\\Date&#45;&gt;\\Feeld\\Field\\DataType\\DataTypeInterface</title>
<path fill="none" stroke="black" stroke-dasharray="1,5" d="M618.561,-524C583.193,-524 518.492,-524 467.356,-524"/>
<polygon fill="none" stroke="black" points="467.323,-520.5 457.323,-524 467.323,-527.5 467.323,-520.5"/>
</g>
<!-- \\Feeld\\Field\\DataType\\Country -->
<g id="node7" class="node"><title>\\Feeld\\Field\\DataType\\Country</title>
<polygon fill="none" stroke="black" points="884.58,-712 820.58,-712 820.58,-676 884.58,-676 884.58,-712"/>
<text text-anchor="middle" x="852.58" y="-691.2" font-family="Courier,monospace" font-size="11.00">Country</text>
</g>
<!-- \\Feeld\\Field\\DataType\\Country&#45;&gt;\\Feeld\\Field\\DataType\\String -->
<g id="edge9" class="edge"><title>\\Feeld\\Field\\DataType\\Country&#45;&gt;\\Feeld\\Field\\DataType\\String</title>
<path fill="none" stroke="black" d="M820.445,-679.572C783.789,-662.584 722.958,-634.395 683.834,-616.264"/>
<polygon fill="none" stroke="black" points="684.927,-612.913 674.382,-611.884 681.984,-619.264 684.927,-612.913"/>
</g>
<!-- \\Feeld\\Field\\DataType\\Float -->
<g id="node8" class="node"><title>\\Feeld\\Field\\DataType\\Float</title>
<polygon fill="none" stroke="black" points="672.58,-697 618.58,-697 618.58,-661 672.58,-661 672.58,-697"/>
<text text-anchor="middle" x="645.58" y="-676.2" font-family="Courier,monospace" font-size="11.00">Float</text>
</g>
<!-- \\Feeld\\Field\\DataType\\Float&#45;&gt;\\Feeld\\Field\\DataType\\Boundaries\\LengthBoundariesInterface -->
<g id="edge13" class="edge"><title>\\Feeld\\Field\\DataType\\Float&#45;&gt;\\Feeld\\Field\\DataType\\Boundaries\\LengthBoundariesInterface</title>
<path fill="none" stroke="black" stroke-dasharray="1,5" d="M618.561,-679.723C589.216,-680.538 539.679,-681.914 494.451,-683.17"/>
<polygon fill="none" stroke="black" points="494.173,-679.677 484.274,-683.453 494.367,-686.674 494.173,-679.677"/>
</g>
<!-- \\Feeld\\Field\\DataType\\Float&#45;&gt;\\Feeld\\Field\\DataType\\Boundaries\\NumericBoundariesInterface -->
<g id="edge14" class="edge"><title>\\Feeld\\Field\\DataType\\Float&#45;&gt;\\Feeld\\Field\\DataType\\Boundaries\\NumericBoundariesInterface</title>
<path fill="none" stroke="black" stroke-dasharray="1,5" d="M618.561,-685.298C585.315,-693.346 526.15,-707.668 476.698,-719.638"/>
<polygon fill="none" stroke="black" points="475.844,-716.244 466.948,-721.998 477.49,-723.047 475.844,-716.244"/>
</g>
<!-- \\Feeld\\Field\\DataType\\Float&#45;&gt;\\Feeld\\Field\\DataType\\DataTypeInterface -->
<g id="edge12" class="edge"><title>\\Feeld\\Field\\DataType\\Float&#45;&gt;\\Feeld\\Field\\DataType\\DataTypeInterface</title>
<path fill="none" stroke="black" stroke-dasharray="1,5" d="M618.173,-667.725C598.407,-658.438 571.467,-643.907 551.58,-626 519.866,-597.444 531.076,-571.691 495.58,-548 486.958,-542.245 477.129,-537.862 467.046,-534.524"/>
<polygon fill="none" stroke="black" points="467.914,-531.131 457.331,-531.634 465.918,-537.84 467.914,-531.131"/>
</g>
<!-- \\Feeld\\Field\\DataType\\File -->
<g id="node9" class="node"><title>\\Feeld\\Field\\DataType\\File</title>
<polygon fill="none" stroke="black" points="879.58,-658 825.58,-658 825.58,-622 879.58,-622 879.58,-658"/>
<text text-anchor="middle" x="852.58" y="-637.2" font-family="Courier,monospace" font-size="11.00">File</text>
</g>
<!-- \\Feeld\\Field\\DataType\\File&#45;&gt;\\Feeld\\Field\\DataType\\String -->
<g id="edge16" class="edge"><title>\\Feeld\\Field\\DataType\\File&#45;&gt;\\Feeld\\Field\\DataType\\String</title>
<path fill="none" stroke="black" d="M825.2,-634.724C789.311,-627.546 724.9,-614.664 684.022,-606.488"/>
<polygon fill="none" stroke="black" points="684.66,-603.047 674.167,-604.517 683.287,-609.911 684.66,-603.047"/>
</g>
<!-- \\Feeld\\Field\\DataType\\Integer -->
<g id="node10" class="node"><title>\\Feeld\\Field\\DataType\\Integer</title>
<polygon fill="none" stroke="black" points="677.58,-751 613.58,-751 613.58,-715 677.58,-715 677.58,-751"/>
<text text-anchor="middle" x="645.58" y="-730.2" font-family="Courier,monospace" font-size="11.00">Integer</text>
</g>
<!-- \\Feeld\\Field\\DataType\\Integer&#45;&gt;\\Feeld\\Field\\DataType\\Boundaries\\LengthBoundariesInterface -->
<g id="edge18" class="edge"><title>\\Feeld\\Field\\DataType\\Integer&#45;&gt;\\Feeld\\Field\\DataType\\Boundaries\\LengthBoundariesInterface</title>
<path fill="none" stroke="black" stroke-dasharray="1,5" d="M613.427,-727.19C583.618,-721.63 536.998,-712.935 494.259,-704.964"/>
<polygon fill="none" stroke="black" points="494.824,-701.509 484.352,-703.116 493.54,-708.39 494.824,-701.509"/>
</g>
<!-- \\Feeld\\Field\\DataType\\Integer&#45;&gt;\\Feeld\\Field\\DataType\\Boundaries\\NumericBoundariesInterface -->
<g id="edge19" class="edge"><title>\\Feeld\\Field\\DataType\\Integer&#45;&gt;\\Feeld\\Field\\DataType\\Boundaries\\NumericBoundariesInterface</title>
<path fill="none" stroke="black" stroke-dasharray="1,5" d="M613.427,-733.865C584.474,-734.67 539.66,-735.914 497.947,-737.073"/>
<polygon fill="none" stroke="black" points="497.602,-733.581 487.703,-737.358 497.797,-740.579 497.602,-733.581"/>
</g>
<!-- \\Feeld\\Field\\DataType\\Integer&#45;&gt;\\Feeld\\Field\\DataType\\DataTypeInterface -->
<g id="edge17" class="edge"><title>\\Feeld\\Field\\DataType\\Integer&#45;&gt;\\Feeld\\Field\\DataType\\DataTypeInterface</title>
<path fill="none" stroke="black" stroke-dasharray="1,5" d="M613.396,-731.108C593.418,-728.331 568.211,-721.692 551.58,-706 497.392,-654.87 551.12,-597.659 495.58,-548 487.406,-540.691 477.441,-535.487 466.964,-531.802"/>
<polygon fill="none" stroke="black" points="467.823,-528.405 457.236,-528.829 465.777,-535.099 467.823,-528.405"/>
</g>
<!-- \\Feeld\\Field\\DataType\\Email -->
<g id="node11" class="node"><title>\\Feeld\\Field\\DataType\\Email</title>
<polygon fill="none" stroke="black" points="879.58,-604 825.58,-604 825.58,-568 879.58,-568 879.58,-604"/>
<text text-anchor="middle" x="852.58" y="-583.2" font-family="Courier,monospace" font-size="11.00">Email</text>
</g>
<!-- \\Feeld\\Field\\DataType\\Email&#45;&gt;\\Feeld\\Field\\DataType\\String -->
<g id="edge21" class="edge"><title>\\Feeld\\Field\\DataType\\Email&#45;&gt;\\Feeld\\Field\\DataType\\String</title>
<path fill="none" stroke="black" d="M825.2,-587.673C789.387,-589.944 725.173,-594.016 684.282,-596.609"/>
<polygon fill="none" stroke="black" points="683.926,-593.125 674.167,-597.251 684.369,-600.111 683.926,-593.125"/>
</g>
<!-- \\Feeld\\Field\\DataType\\URL -->
<g id="node12" class="node"><title>\\Feeld\\Field\\DataType\\URL</title>
<polygon fill="none" stroke="black" points="879.58,-550 825.58,-550 825.58,-514 879.58,-514 879.58,-550"/>
<text text-anchor="middle" x="852.58" y="-529.2" font-family="Courier,monospace" font-size="11.00">URL</text>
</g>
<!-- \\Feeld\\Field\\DataType\\URL&#45;&gt;\\Feeld\\Field\\DataType\\String -->
<g id="edge24" class="edge"><title>\\Feeld\\Field\\DataType\\URL&#45;&gt;\\Feeld\\Field\\DataType\\String</title>
<path fill="none" stroke="black" d="M825.2,-540.622C789.235,-552.376 724.627,-573.492 683.762,-586.848"/>
<polygon fill="none" stroke="black" points="682.585,-583.55 674.167,-589.984 684.76,-590.204 682.585,-583.55"/>
</g>
<!-- \\Feeld\\Field\\DataType\\DataTypeInterface&#45;&gt;\\Wellid\\ValidatableInterface -->
<g id="edge34" class="edge"><title>\\Feeld\\Field\\DataType\\DataTypeInterface&#45;&gt;\\Wellid\\ValidatableInterface</title>
<path fill="none" stroke="black" d="M326.058,-526.537C302.664,-529.697 276.795,-535.946 255.58,-548 196.673,-581.469 150.383,-648.704 127.831,-686.191"/>
<polygon fill="none" stroke="black" points="124.676,-684.65 122.615,-695.042 130.707,-688.203 124.676,-684.65"/>
</g>
<!-- \\Sanitor\\SanitizableInterface -->
<g id="node39" class="node"><title>\\Sanitor\\SanitizableInterface</title>
<ellipse fill="none" stroke="black" cx="111.79" cy="-476" rx="111.28" ry="18"/>
<text text-anchor="middle" x="111.79" y="-472.3" font-family="Times,serif" font-size="14.00" fill="gray">\Sanitor\SanitizableInterface</text>
</g>
<!-- \\Feeld\\Field\\DataType\\DataTypeInterface&#45;&gt;\\Sanitor\\SanitizableInterface -->
<g id="edge33" class="edge"><title>\\Feeld\\Field\\DataType\\DataTypeInterface&#45;&gt;\\Sanitor\\SanitizableInterface</title>
<path fill="none" stroke="black" d="M325.991,-513.725C303.672,-510.107 278.513,-505.956 255.58,-502 236.144,-498.647 215.244,-494.914 195.592,-491.346"/>
<polygon fill="none" stroke="black" points="196.217,-487.902 185.752,-489.555 194.963,-494.789 196.217,-487.902"/>
</g>
<!-- \\Feeld\\Field\\CommonProperties\\MultipleChoiceInterface -->
<g id="node14" class="node"><title>\\Feeld\\Field\\CommonProperties\\MultipleChoiceInterface</title>
<polygon fill="none" stroke="black" points="731.58,-1452 559.58,-1452 559.58,-1416 731.58,-1416 731.58,-1452"/>
<text text-anchor="middle" x="645.58" y="-1431.2" font-family="Courier,monospace" font-size="11.00">MultipleChoiceInterface</text>
</g>
<!-- \\Feeld\\Field\\CommonProperties\\IdentifierInterface -->
<g id="node15" class="node"><title>\\Feeld\\Field\\CommonProperties\\IdentifierInterface</title>
<polygon fill="none" stroke="black" points="718.08,-1236 573.08,-1236 573.08,-1200 718.08,-1200 718.08,-1236"/>
<text text-anchor="middle" x="645.58" y="-1215.2" font-family="Courier,monospace" font-size="11.00">IdentifierInterface</text>
</g>
<!-- \\Feeld\\Field\\CommonProperties\\OptionsInterface -->
<g id="node16" class="node"><title>\\Feeld\\Field\\CommonProperties\\OptionsInterface</title>
<polygon fill="none" stroke="black" points="708.08,-1398 583.08,-1398 583.08,-1362 708.08,-1362 708.08,-1398"/>
<text text-anchor="middle" x="645.58" y="-1377.2" font-family="Courier,monospace" font-size="11.00">OptionsInterface</text>
</g>
<!-- \\Feeld\\Field\\CommonProperties\\RequiredInterface -->
<g id="node17" class="node"><title>\\Feeld\\Field\\CommonProperties\\RequiredInterface</title>
<polygon fill="none" stroke="black" points="711.08,-1344 580.08,-1344 580.08,-1308 711.08,-1308 711.08,-1344"/>
<text text-anchor="middle" x="645.58" y="-1323.2" font-family="Courier,monospace" font-size="11.00">RequiredInterface</text>
</g>
<!-- \\Feeld\\Field\\CommonProperties\\RequiredInterface&#45;&gt;\\Wellid\\ValidatableInterface -->
<g id="edge36" class="edge"><title>\\Feeld\\Field\\CommonProperties\\RequiredInterface&#45;&gt;\\Wellid\\ValidatableInterface</title>
<path fill="none" stroke="black" d="M580.076,-1339.72C570.139,-1343.23 560.296,-1347.6 551.58,-1353 462.828,-1408.03 496.813,-1532.41 392.58,-1526"/>
</g>
<!-- \\Feeld\\Field\\CommonProperties\\RequiredInterface&#45;&gt;\\Sanitor\\SanitizableInterface -->
<g id="edge37" class="edge"><title>\\Feeld\\Field\\CommonProperties\\RequiredInterface&#45;&gt;\\Sanitor\\SanitizableInterface</title>
<path fill="none" stroke="black" d="M579.867,-1318.28C568.978,-1314.15 558.864,-1308.03 551.58,-1299 438.985,-1159.43 587.035,-648.247 495.58,-494 467.851,-447.233 440.464,-453.752 392.58,-428"/>
</g>
<!-- \\Feeld\\Field\\CommonProperties\\DefaultValueInterface -->
<g id="node18" class="node"><title>\\Feeld\\Field\\CommonProperties\\DefaultValueInterface</title>
<polygon fill="none" stroke="black" points="724.58,-1290 566.58,-1290 566.58,-1254 724.58,-1254 724.58,-1290"/>
<text text-anchor="middle" x="645.58" y="-1269.2" font-family="Courier,monospace" font-size="11.00">DefaultValueInterface</text>
</g>
<!-- \\Feeld\\Field\\CommonProperties\\DefaultValueInterface&#45;&gt;\\Wellid\\ValidatableInterface -->
<g id="edge38" class="edge"><title>\\Feeld\\Field\\CommonProperties\\DefaultValueInterface&#45;&gt;\\Wellid\\ValidatableInterface</title>
<path fill="none" stroke="black" d="M566.553,-1290.19C561.283,-1292.75 556.229,-1295.67 551.58,-1299 451.413,-1370.69 515.524,-1533.57 392.58,-1526"/>
</g>
<!-- \\Feeld\\Field\\CommonProperties\\DefaultValueInterface&#45;&gt;\\Sanitor\\SanitizableInterface -->
<g id="edge39" class="edge"><title>\\Feeld\\Field\\CommonProperties\\DefaultValueInterface&#45;&gt;\\Sanitor\\SanitizableInterface</title>
<path fill="none" stroke="black" d="M566.3,-1257.67C560.74,-1254.26 555.71,-1250.09 551.58,-1245 446.177,-1115.01 581.289,-637.739 495.58,-494 467.735,-447.302 440.464,-453.752 392.58,-428"/>
</g>
<!-- \\Feeld\\Field\\CommonProperties\\Field -->
<g id="node19" class="node"><title>\\Feeld\\Field\\CommonProperties\\Field</title>
<polygon fill="none" stroke="black" points="672.58,-1182 618.58,-1182 618.58,-1146 672.58,-1146 672.58,-1182"/>
<text text-anchor="middle" x="645.58" y="-1161.2" font-family="Courier,monospace" font-size="11.00">Field</text>
</g>
<!-- \\Feeld\\Field\\CommonProperties\\Required -->
<g id="node20" class="node"><title>\\Feeld\\Field\\CommonProperties\\Required</title>
<polygon fill="none" stroke="black" points="681.08,-1128 610.08,-1128 610.08,-1092 681.08,-1092 681.08,-1128"/>
<text text-anchor="middle" x="645.58" y="-1107.2" font-family="Courier,monospace" font-size="11.00">Required</text>
</g>
<!-- \\Feeld\\Field\\CommonProperties\\DefaultValue -->
<g id="node21" class="node"><title>\\Feeld\\Field\\CommonProperties\\DefaultValue</title>
<polygon fill="none" stroke="black" points="694.58,-1074 596.58,-1074 596.58,-1038 694.58,-1038 694.58,-1074"/>
<text text-anchor="middle" x="645.58" y="-1053.2" font-family="Courier,monospace" font-size="11.00">DefaultValue</text>
</g>
<!-- \\Feeld\\Field\\CommonProperties\\Options -->
<g id="node22" class="node"><title>\\Feeld\\Field\\CommonProperties\\Options</title>
<polygon fill="none" stroke="black" points="677.58,-1020 613.58,-1020 613.58,-984 677.58,-984 677.58,-1020"/>
<text text-anchor="middle" x="645.58" y="-999.2" font-family="Courier,monospace" font-size="11.00">Options</text>
</g>
<!-- \\Feeld\\Field\\CommonProperties\\Identifier -->
<g id="node23" class="node"><title>\\Feeld\\Field\\CommonProperties\\Identifier</title>
<polygon fill="none" stroke="black" points="687.58,-966 603.58,-966 603.58,-930 687.58,-930 687.58,-966"/>
<text text-anchor="middle" x="645.58" y="-945.2" font-family="Courier,monospace" font-size="11.00">Identifier</text>
</g>
<!-- \\Feeld\\Field\\CommonProperties\\MultipleChoice -->
<g id="node24" class="node"><title>\\Feeld\\Field\\CommonProperties\\MultipleChoice</title>
<polygon fill="none" stroke="black" points="701.08,-912 590.08,-912 590.08,-876 701.08,-876 701.08,-912"/>
<text text-anchor="middle" x="645.58" y="-891.2" font-family="Courier,monospace" font-size="11.00">MultipleChoice</text>
</g>
<!-- \\Feeld\\Field\\CloakedEntry -->
<g id="node25" class="node"><title>\\Feeld\\Field\\CloakedEntry</title>
<polygon fill="none" stroke="black" points="901.58,-912 803.58,-912 803.58,-876 901.58,-876 901.58,-912"/>
<text text-anchor="middle" x="852.58" y="-891.2" font-family="Courier,monospace" font-size="11.00">CloakedEntry</text>
</g>
<!-- \\Feeld\\Field\\Entry -->
<g id="node29" class="node"><title>\\Feeld\\Field\\Entry</title>
<polygon fill="none" stroke="black" points="672.58,-858 618.58,-858 618.58,-822 672.58,-822 672.58,-858"/>
<text text-anchor="middle" x="645.58" y="-837.2" font-family="Courier,monospace" font-size="11.00">Entry</text>
</g>
<!-- \\Feeld\\Field\\CloakedEntry&#45;&gt;\\Feeld\\Field\\Entry -->
<g id="edge1" class="edge"><title>\\Feeld\\Field\\CloakedEntry&#45;&gt;\\Feeld\\Field\\Entry</title>
<path fill="none" stroke="black" d="M803.368,-880.983C783.61,-875.675 760.508,-869.503 739.58,-864 720.707,-859.037 699.654,-853.596 682.358,-849.151"/>
<polygon fill="none" stroke="black" points="683.21,-845.757 672.653,-846.661 681.469,-852.537 683.21,-845.757"/>
</g>
<!-- \\Feeld\\Field\\Select -->
<g id="node26" class="node"><title>\\Feeld\\Field\\Select</title>
<polygon fill="none" stroke="black" points="881.08,-1398 824.08,-1398 824.08,-1362 881.08,-1362 881.08,-1398"/>
<text text-anchor="middle" x="852.58" y="-1377.2" font-family="Courier,monospace" font-size="11.00">Select</text>
</g>
<!-- \\Feeld\\Field\\Select&#45;&gt;\\Feeld\\Field\\CommonProperties\\MultipleChoiceInterface -->
<g id="edge5" class="edge"><title>\\Feeld\\Field\\Select&#45;&gt;\\Feeld\\Field\\CommonProperties\\MultipleChoiceInterface</title>
<path fill="none" stroke="black" stroke-dasharray="1,5" d="M823.933,-1387.28C798.559,-1393.97 759.729,-1404.19 724.864,-1413.38"/>
<polygon fill="none" stroke="black" points="723.928,-1410.01 715.149,-1415.94 725.711,-1416.78 723.928,-1410.01"/>
</g>
<!-- \\Feeld\\Field\\Select&#45;&gt;\\Feeld\\Field\\CommonProperties\\OptionsInterface -->
<g id="edge4" class="edge"><title>\\Feeld\\Field\\Select&#45;&gt;\\Feeld\\Field\\CommonProperties\\OptionsInterface</title>
<path fill="none" stroke="black" stroke-dasharray="1,5" d="M823.933,-1380C796.961,-1380 754.783,-1380 718.326,-1380"/>
<polygon fill="none" stroke="black" points="718.213,-1376.5 708.213,-1380 718.213,-1383.5 718.213,-1376.5"/>
</g>
<!-- \\Feeld\\FieldInterface -->
<g id="node37" class="node"><title>\\Feeld\\FieldInterface</title>
<polygon fill="none" stroke="black" points="701.08,-438 590.08,-438 590.08,-402 701.08,-402 701.08,-438"/>
<text text-anchor="middle" x="645.58" y="-417.2" font-family="Courier,monospace" font-size="11.00">FieldInterface</text>
</g>
<!-- \\Feeld\\Field\\Select&#45;&gt;\\Feeld\\FieldInterface -->
<g id="edge6" class="edge"><title>\\Feeld\\Field\\Select&#45;&gt;\\Feeld\\FieldInterface</title>
<path fill="none" stroke="black" stroke-dasharray="1,5" d="M849.692,-1361.98C836.817,-1239.55 761.783,-533.488 739.58,-494 727.969,-473.35 708.066,-456.338 689.644,-443.854"/>
<polygon fill="none" stroke="black" points="691.335,-440.779 681.042,-438.267 687.522,-446.649 691.335,-440.779"/>
</g>
<!-- \\Feeld\\Field\\Checkbox -->
<g id="node27" class="node"><title>\\Feeld\\Field\\Checkbox</title>
<polygon fill="none" stroke="black" points="888.08,-858 817.08,-858 817.08,-822 888.08,-822 888.08,-858"/>
<text text-anchor="middle" x="852.58" y="-837.2" font-family="Courier,monospace" font-size="11.00">Checkbox</text>
</g>
<!-- \\Feeld\\Field\\Checkbox&#45;&gt;\\Feeld\\Field\\CommonProperties\\OptionsInterface -->
<g id="edge11" class="edge"><title>\\Feeld\\Field\\Checkbox&#45;&gt;\\Feeld\\Field\\CommonProperties\\OptionsInterface</title>
<path fill="none" stroke="black" stroke-dasharray="1,5" d="M816.865,-854.228C811.722,-857.709 807.008,-861.931 803.58,-867 681.524,-1047.46 881.524,-1187.72 739.58,-1353 733.691,-1359.86 726.173,-1365.03 717.971,-1368.91"/>
<polygon fill="none" stroke="black" points="716.414,-1365.77 708.47,-1372.78 719.051,-1372.25 716.414,-1365.77"/>
</g>
<!-- \\Feeld\\Field\\Checkbox&#45;&gt;\\Feeld\\FieldInterface -->
<g id="edge10" class="edge"><title>\\Feeld\\Field\\Checkbox&#45;&gt;\\Feeld\\FieldInterface</title>
<path fill="none" stroke="black" stroke-dasharray="1,5" d="M816.728,-828.933C811.731,-826.053 807.101,-822.462 803.58,-818 712.657,-702.769 815.907,-619.377 739.58,-494 727.076,-473.46 706.682,-456.285 688.174,-443.668"/>
<polygon fill="none" stroke="black" points="689.844,-440.578 679.562,-438.022 686.006,-446.432 689.844,-440.578"/>
</g>
<!-- \\Feeld\\Field\\Constant -->
<g id="node28" class="node"><title>\\Feeld\\Field\\Constant</title>
<polygon fill="none" stroke="black" points="888.08,-490 817.08,-490 817.08,-454 888.08,-454 888.08,-490"/>
<text text-anchor="middle" x="852.58" y="-469.2" font-family="Courier,monospace" font-size="11.00">Constant</text>
</g>
<!-- \\Feeld\\Field\\Constant&#45;&gt;\\Feeld\\FieldInterface -->
<g id="edge22" class="edge"><title>\\Feeld\\Field\\Constant&#45;&gt;\\Feeld\\FieldInterface</title>
<path fill="none" stroke="black" stroke-dasharray="1,5" d="M816.805,-463.179C788.005,-455.874 746.294,-445.293 711.37,-436.434"/>
<polygon fill="none" stroke="black" points="711.799,-432.932 701.245,-433.866 710.077,-439.718 711.799,-432.932"/>
</g>
<!-- \\Feeld\\Field\\Entry&#45;&gt;\\Feeld\\FieldInterface -->
<g id="edge26" class="edge"><title>\\Feeld\\Field\\Entry&#45;&gt;\\Feeld\\FieldInterface</title>
<path fill="none" stroke="black" stroke-dasharray="1,5" d="M672.709,-842.245C702.445,-843.018 748.931,-838.898 771.58,-809 812.642,-754.797 803.832,-562.865 771.58,-503 756.91,-475.77 728.967,-456.002 703.117,-442.604"/>
<polygon fill="none" stroke="black" points="704.6,-439.433 694.085,-438.13 701.492,-445.705 704.6,-439.433"/>
</g>
<!-- \\Feeld\\Display\\HTML\\Textarea -->
<g id="node30" class="node"><title>\\Feeld\\Display\\HTML\\Textarea</title>
<polygon fill="none" stroke="black" points="888.08,-176 817.08,-176 817.08,-140 888.08,-140 888.08,-176"/>
<text text-anchor="middle" x="852.58" y="-155.2" font-family="Courier,monospace" font-size="11.00">Textarea</text>
</g>
<!-- \\Feeld\\Display\\HTML\\Element -->
<g id="node32" class="node"><title>\\Feeld\\Display\\HTML\\Element</title>
<polygon fill="none" stroke="black" points="677.58,-230 613.58,-230 613.58,-194 677.58,-194 677.58,-230"/>
<text text-anchor="middle" x="645.58" y="-209.2" font-family="Courier,monospace" font-size="11.00">Element</text>
</g>
<!-- \\Feeld\\Display\\HTML\\Textarea&#45;&gt;\\Feeld\\Display\\HTML\\Element -->
<g id="edge7" class="edge"><title>\\Feeld\\Display\\HTML\\Textarea&#45;&gt;\\Feeld\\Display\\HTML\\Element</title>
<path fill="none" stroke="black" d="M816.805,-167.16C781.047,-176.58 725.384,-191.242 687.522,-201.215"/>
<polygon fill="none" stroke="black" points="686.604,-197.838 677.825,-203.77 688.387,-204.607 686.604,-197.838"/>
</g>
<!-- \\Feeld\\Display\\HTML\\Button -->
<g id="node31" class="node"><title>\\Feeld\\Display\\HTML\\Button</title>
<polygon fill="none" stroke="black" points="881.08,-122 824.08,-122 824.08,-86 881.08,-86 881.08,-122"/>
<text text-anchor="middle" x="852.58" y="-101.2" font-family="Courier,monospace" font-size="11.00">Button</text>
</g>
<!-- \\Feeld\\Display\\HTML\\Button&#45;&gt;\\Feeld\\Display\\HTML\\Element -->
<g id="edge15" class="edge"><title>\\Feeld\\Display\\HTML\\Button&#45;&gt;\\Feeld\\Display\\HTML\\Element</title>
<path fill="none" stroke="black" d="M823.933,-118.565C788.649,-137.154 727.344,-169.451 686.864,-190.777"/>
<polygon fill="none" stroke="black" points="685.022,-187.792 677.806,-195.549 688.285,-193.985 685.022,-187.792"/>
</g>
<!-- \\Feeld\\Display\\HTML\\Input -->
<g id="node33" class="node"><title>\\Feeld\\Display\\HTML\\Input</title>
<polygon fill="none" stroke="black" points="879.58,-338 825.58,-338 825.58,-302 879.58,-302 879.58,-338"/>
<text text-anchor="middle" x="852.58" y="-317.2" font-family="Courier,monospace" font-size="11.00">Input</text>
</g>
<!-- \\Feeld\\Display\\HTML\\Input&#45;&gt;\\Feeld\\Display\\HTML\\Element -->
<g id="edge20" class="edge"><title>\\Feeld\\Display\\HTML\\Input&#45;&gt;\\Feeld\\Display\\HTML\\Element</title>
<path fill="none" stroke="black" d="M825.489,-306.77C818.184,-302.684 810.386,-297.947 803.58,-293 772.288,-270.252 773.742,-252.157 739.58,-234 723.687,-225.553 704.562,-220.314 687.8,-217.081"/>
<polygon fill="none" stroke="black" points="688.172,-213.593 677.718,-215.317 686.965,-220.489 688.172,-213.593"/>
</g>
<!-- \\Feeld\\Display\\HTML\\Option -->
<g id="node34" class="node"><title>\\Feeld\\Display\\HTML\\Option</title>
<polygon fill="none" stroke="black" points="881.08,-284 824.08,-284 824.08,-248 881.08,-248 881.08,-284"/>
<text text-anchor="middle" x="852.58" y="-263.2" font-family="Courier,monospace" font-size="11.00">Option</text>
</g>
<!-- \\Feeld\\Display\\HTML\\Option&#45;&gt;\\Feeld\\Display\\HTML\\Element -->
<g id="edge23" class="edge"><title>\\Feeld\\Display\\HTML\\Option&#45;&gt;\\Feeld\\Display\\HTML\\Element</title>
<path fill="none" stroke="black" d="M824.061,-257.755C801.448,-251.072 768.539,-241.558 739.58,-234 722.563,-229.559 703.694,-225.024 687.424,-221.234"/>
<polygon fill="none" stroke="black" points="688.2,-217.821 677.669,-218.978 686.623,-224.641 688.2,-217.821"/>
</g>
<!-- \\Feeld\\Display\\HTML\\Select -->
<g id="node35" class="node"><title>\\Feeld\\Display\\HTML\\Select</title>
<polygon fill="none" stroke="black" points="881.08,-230 824.08,-230 824.08,-194 881.08,-194 881.08,-230"/>
<text text-anchor="middle" x="852.58" y="-209.2" font-family="Courier,monospace" font-size="11.00">Select</text>
</g>
<!-- \\Feeld\\Display\\HTML\\Select&#45;&gt;\\Feeld\\Display\\HTML\\Element -->
<g id="edge25" class="edge"><title>\\Feeld\\Display\\HTML\\Select&#45;&gt;\\Feeld\\Display\\HTML\\Element</title>
<path fill="none" stroke="black" d="M823.933,-212C788.946,-212 728.375,-212 687.891,-212"/>
<polygon fill="none" stroke="black" points="687.806,-208.5 677.806,-212 687.806,-215.5 687.806,-208.5"/>
</g>
<!-- \\Feeld\\Display\\HTMLBuilder -->
<g id="node36" class="node"><title>\\Feeld\\Display\\HTMLBuilder</title>
<polygon fill="none" stroke="black" points="898.08,-68 807.08,-68 807.08,-32 898.08,-32 898.08,-68"/>
<text text-anchor="middle" x="852.58" y="-47.2" font-family="Courier,monospace" font-size="11.00">HTMLBuilder</text>
</g>
<!-- \\Feeld\\FieldInterface&#45;&gt;\\Feeld\\Field\\CommonProperties\\IdentifierInterface -->
<g id="edge31" class="edge"><title>\\Feeld\\FieldInterface&#45;&gt;\\Feeld\\Field\\CommonProperties\\IdentifierInterface</title>
<path fill="none" stroke="black" d="M694.085,-438.13C722.194,-451.444 755.181,-472.56 771.58,-503 807.362,-569.419 817.012,-1121.77 771.58,-1182 760.929,-1196.12 745.127,-1204.98 728.285,-1210.48"/>
<polygon fill="none" stroke="black" points="726.931,-1207.23 718.28,-1213.34 728.857,-1213.96 726.931,-1207.23"/>
</g>
<!-- \\Feeld\\FieldInterface&#45;&gt;\\Feeld\\Field\\CommonProperties\\RequiredInterface -->
<g id="edge32" class="edge"><title>\\Feeld\\FieldInterface&#45;&gt;\\Feeld\\Field\\CommonProperties\\RequiredInterface</title>
<path fill="none" stroke="black" d="M694.085,-438.13C722.194,-451.444 755.181,-472.56 771.58,-503 792.317,-541.492 797.909,-1255.09 771.58,-1290 759.45,-1306.08 740.638,-1315.35 721.218,-1320.58"/>
<polygon fill="none" stroke="black" points="720.283,-1317.21 711.352,-1322.91 721.888,-1324.02 720.283,-1317.21"/>
</g>
<!-- \\Feeld\\FieldInterface&#45;&gt;\\Feeld\\Field\\CommonProperties\\DefaultValueInterface -->
<g id="edge30" class="edge"><title>\\Feeld\\FieldInterface&#45;&gt;\\Feeld\\Field\\CommonProperties\\DefaultValueInterface</title>
<path fill="none" stroke="black" d="M694.085,-438.13C722.194,-451.444 755.181,-472.56 771.58,-503 790.894,-538.851 796.103,-1203.49 771.58,-1236 762.252,-1248.37 748.973,-1256.7 734.505,-1262.27"/>
<polygon fill="none" stroke="black" points="733.198,-1259.02 724.855,-1265.55 735.45,-1265.65 733.198,-1259.02"/>
</g>
<!-- \\Feeld\\FieldInterface&#45;&gt;\\Wellid\\ValidatableInterface -->
<g id="edge29" class="edge"><title>\\Feeld\\FieldInterface&#45;&gt;\\Wellid\\ValidatableInterface</title>
<path fill="none" stroke="black" d="M610.802,-438.107C590.287,-450.932 565.457,-470.086 551.58,-494 435.123,-694.699 624.181,-1540.25 392.58,-1526"/>
<path fill="none" stroke="black" d="M390.58,-1526C221.543,-1515.6 133.814,-883.939 116.152,-741.376"/>
<polygon fill="none" stroke="black" points="119.602,-740.751 114.914,-731.25 112.653,-741.601 119.602,-740.751"/>
</g>
<!-- \\Feeld\\FieldInterface&#45;&gt;\\Sanitor\\SanitizableInterface -->
<g id="edge28" class="edge"><title>\\Feeld\\FieldInterface&#45;&gt;\\Sanitor\\SanitizableInterface</title>
<path fill="none" stroke="black" d="M589.859,-436.773C536.242,-449.895 453.876,-460.965 392.58,-428"/>
<path fill="none" stroke="black" d="M390.58,-428C313.614,-386.608 208.869,-426.31 152.541,-454.117"/>
<polygon fill="none" stroke="black" points="150.946,-451.002 143.597,-458.635 154.101,-457.25 150.946,-451.002"/>
</g>
</g>
</svg>
